<?xml version="1.0" encoding="UTF-8" standalone="no"?>
<!-- Created with Inkscape (http://www.inkscape.org/) -->

<svg
   xmlns:dc="http://purl.org/dc/elements/1.1/"
   xmlns:cc="http://creativecommons.org/ns#"
   xmlns:rdf="http://www.w3.org/1999/02/22-rdf-syntax-ns#"
   xmlns:svg="http://www.w3.org/2000/svg"
   xmlns="http://www.w3.org/2000/svg"
   version="1.1"
   width="2107.7649"
   height="992.16516"
   id="svg2"
   xml:space="preserve"><metadata
     id="metadata8"><rdf:RDF><cc:Work
         rdf:about=""><dc:format>image/svg+xml</dc:format><dc:type
           rdf:resource="http://purl.org/dc/dcmitype/StillImage" /><dc:title></dc:title></cc:Work></rdf:RDF></metadata><defs
     id="defs6"><clipPath
       id="clipPath16"><path
         d="m 0,850.39 1984.25,0 L 1984.25,0 0,0 0,850.39 z"
         id="path18" /></clipPath></defs><g
     transform="matrix(1.25,0,0,-1.25,-184.8708,1027.4993)"
     id="g10"><g
       id="g12"><g
         clip-path="url(#clipPath16)"
         id="g14"><g
           transform="translate(940.7793,414.6592)"
           id="g20"><path
             d="m 0,0 c 0.005,0.4 0.029,0.795 0.029,1.199 0,44.364 -35.424,80.326 -79.119,80.326 l -305.878,0 c -43.695,0 -79.119,-35.962 -79.119,-80.326 0,-44.369 35.424,-80.332 79.119,-80.332 l 197.453,0 c -13.162,-30.357 -32.839,-57.387 -58.523,-80.101 -40.093,-35.461 -91.4,-55.707 -144.469,-57.008 -66.765,-1.643 -130.582,26.283 -175.085,76.599 -82.695,93.504 -73.906,236.854 19.594,319.552 47.523,42.029 105.214,62.282 164.264,57.476 3.647,-0.363 6.939,-0.49 10.162,-0.41 18.385,0.451 36.093,7.75 51.192,21.107 16.21,14.335 26.377,35.623 27.896,58.414 1.554,23.298 -5.732,45.33 -20.506,62.036 -14.105,15.948 -36.611,26.703 -58.728,28.058 -11.369,0.697 -22.878,0.91 -34.221,0.632 -93.291,-2.29 -183.179,-37.618 -253.12,-99.476 -163.99,-145.044 -179.412,-396.465 -34.372,-560.451 77.631,-87.777 189.728,-136.457 307.556,-133.565 93.36,2.295 183.169,37.518 252.903,99.194 C -53.573,-216.84 -6.261,-119.854 0.231,-13.963 0.521,-9.246 0.427,-4.584 0,0"
             id="path22"
             style="fill:#fabb00;fill-opacity:1;fill-rule:nonzero;stroke:none" /></g><g
           transform="translate(1177.625,624.7271)"
           id="g24"><path
             d="m 0,0 c 0.006,0.166 0.049,0.321 0.049,0.487 0,9.665 -7.718,17.494 -17.237,17.494 l -66.62,0 c -9.513,0 -17.234,-7.829 -17.234,-17.494 0,-9.659 7.721,-17.494 17.234,-17.494 l 42.951,0 c -2.872,-6.602 -7.101,-12.51 -12.692,-17.453 -8.732,-7.722 -19.911,-12.131 -31.471,-12.417 -14.54,-0.352 -28.439,5.732 -38.128,16.687 -18.014,20.364 -16.095,51.591 4.263,69.604 10.35,9.152 22.922,13.567 35.781,12.52 0.789,-0.082 1.51,-0.109 2.215,-0.093 4.005,0.103 7.86,1.689 11.147,4.601 3.533,3.12 5.746,7.758 6.077,12.722 0.337,5.073 -1.249,9.872 -4.472,13.51 -3.067,3.472 -7.97,5.819 -12.784,6.114 -2.472,0.151 -4.979,0.197 -7.451,0.135 -20.319,-0.497 -39.907,-8.193 -55.138,-21.666 -35.719,-31.594 -39.076,-86.358 -7.486,-122.072 16.907,-19.124 41.32,-29.727 66.992,-29.095 20.334,0.497 39.897,8.178 55.085,21.607 17.297,15.297 27.599,36.424 29.015,59.489 C 0.152,-1.861 0.079,-0.928 0,0"
             id="path26"
             style="fill:#373535;fill-opacity:1;fill-rule:nonzero;stroke:none" /></g><g
           transform="translate(1249.4229,571.0771)"
           id="g28"><path
             d="m 0,0 c 16.433,0 29.621,13.188 29.621,29.621 0,16.432 -13.188,29.62 -29.621,29.62 -16.427,0 -29.62,-13.188 -29.62,-29.62 C -29.62,13.188 -16.427,0 0,0 m 0,88.861 c 32.632,0 59.239,-26.609 59.239,-59.24 0,-32.631 -26.607,-59.238 -59.239,-59.238 -32.626,0 -59.239,26.607 -59.239,59.238 0,32.631 26.613,59.24 59.239,59.24"
             id="path30"
             style="fill:#373535;fill-opacity:1;fill-rule:nonzero;stroke:none" /></g><g
           transform="translate(1375.2949,571.0771)"
           id="g32"><path
             d="m 0,0 c 16.431,0 29.619,13.188 29.619,29.621 0,16.432 -13.188,29.62 -29.619,29.62 -16.433,0 -29.621,-13.188 -29.621,-29.62 C -29.621,13.188 -16.433,0 0,0 m 0,88.861 c 32.63,0 59.24,-26.609 59.24,-59.24 0,-32.631 -26.61,-59.238 -59.24,-59.238 -32.627,0 -59.242,26.607 -59.242,59.238 0,32.631 26.615,59.24 59.242,59.24"
             id="path34"
             style="fill:#373535;fill-opacity:1;fill-rule:nonzero;stroke:none" /></g><g
           transform="translate(1501.166,630.3184)"
           id="g36"><path
             d="m 0,0 c -16.434,0 -29.622,-13.188 -29.622,-29.62 0,-16.433 13.188,-29.621 29.622,-29.621 16.426,0 29.62,13.188 29.62,29.621 C 29.62,-13.188 16.426,0 0,0 m 51.367,-59.007 c 5.788,-2.55 9.723,-8.333 9.723,-15.044 0,-9.252 -7.404,-16.662 -16.661,-16.662 -6.717,0 -12.499,3.938 -15.277,9.72 -8.559,-5.088 -18.509,-7.865 -29.152,-7.865 -32.634,0 -59.242,26.607 -59.242,59.238 0,32.631 26.608,59.24 59.242,59.24 10.643,0 20.825,-3.011 29.62,-8.099 l 0,37.72 c 0,8.099 6.71,14.81 14.809,14.81 8.094,0 14.809,-6.711 14.809,-14.81 l 0,-88.861 c 0,-10.644 -3.009,-20.599 -7.871,-29.387"
             id="path38"
             style="fill:#373535;fill-opacity:1;fill-rule:nonzero;stroke:none" /></g><g
           transform="translate(1083.293,399.0479)"
           id="g40"><path
             d="m 0,0 -41.42,41.425 0,-82.849 c 0,-8.094 -6.715,-14.81 -14.809,-14.81 -8.1,0 -14.811,6.716 -14.811,14.81 l 0,118.481 c 0,8.104 6.711,14.81 14.811,14.81 3.932,0 7.638,-1.617 10.415,-4.395 l 56.23,-56.236 56.23,56.236 c 2.778,2.778 6.478,4.395 10.417,4.395 8.093,0 14.81,-6.706 14.81,-14.81 l 0,-118.481 c 0,-8.094 -6.717,-14.81 -14.81,-14.81 -8.1,0 -14.812,6.716 -14.812,14.81 l 0,82.849 L 20.827,0 C 18.05,-3.006 14.116,-4.395 10.416,-4.395 6.711,-4.395 2.778,-3.006 0,0"
             id="path42"
             style="fill:#373535;fill-opacity:1;fill-rule:nonzero;stroke:none" /></g><g
           transform="translate(1247.3398,372.4346)"
           id="g44"><path
             d="m 0,0 c 16.427,0 29.62,13.193 29.62,29.619 0,16.426 -13.193,29.62 -29.62,29.62 -16.431,0 -29.619,-13.194 -29.619,-29.62 C -29.619,13.193 -16.431,0 0,0 m 0,88.86 c 32.625,0 59.242,-26.614 59.242,-59.241 0,-32.625 -26.617,-59.24 -59.242,-59.24 -32.63,0 -59.24,26.615 -59.24,59.24 0,32.627 26.61,59.241 59.24,59.241"
             id="path46"
             style="fill:#373535;fill-opacity:1;fill-rule:nonzero;stroke:none" /></g><g
           transform="translate(1334.3252,463.1494)"
           id="g48"><path
             d="m 0,0 c 6.716,0 12.498,-3.938 15.044,-9.721 8.793,4.86 18.742,7.866 29.386,7.866 8.1,0 14.81,-6.706 14.81,-14.811 0,-8.093 -6.71,-14.81 -14.81,-14.81 -16.426,0 -29.619,-13.194 -29.619,-29.62 l 0,-44.429 c 0,-8.094 -6.712,-14.811 -14.811,-14.811 -8.095,0 -14.812,6.717 -14.812,14.811 l 0,44.429 c 0,10.645 2.779,20.594 7.868,29.154 -5.784,2.777 -9.717,8.571 -9.717,15.276 C -16.661,-7.41 -9.255,0 0,0"
             id="path50"
             style="fill:#373535;fill-opacity:1;fill-rule:nonzero;stroke:none" /></g><g
           transform="translate(1419.4707,463.1494)"
           id="g52"><path
             d="m 0,0 c 6.71,0 12.498,-3.938 15.043,-9.721 8.793,4.86 18.743,7.866 29.387,7.866 32.633,0 59.242,-26.614 59.242,-59.241 l 0,-44.429 c 0,-8.094 -6.711,-14.811 -14.811,-14.811 -8.099,0 -14.809,6.717 -14.809,14.811 l 0,44.429 c 0,16.426 -13.189,29.62 -29.622,29.62 -16.426,0 -29.619,-13.194 -29.619,-29.62 l 0,-44.429 c 0,-8.094 -6.712,-14.811 -14.811,-14.811 -8.099,0 -14.811,6.717 -14.811,14.811 l 0,44.429 c 0,10.645 2.779,20.594 7.873,29.154 -5.789,2.777 -9.723,8.571 -9.723,15.276 C -16.661,-7.41 -9.254,0 0,0"
             id="path54"
             style="fill:#373535;fill-opacity:1;fill-rule:nonzero;stroke:none" /></g><g
           transform="translate(1567.5527,357.624)"
           id="g56"><path
             d="m 0,0 c 0,-8.094 -6.71,-14.811 -14.813,-14.811 -8.097,0 -14.81,6.717 -14.81,14.811 l 0,88.86 c 0,8.105 6.713,14.81 14.81,14.81 C -6.71,103.67 0,96.965 0,88.86 L 0,0 z m -14.813,144.401 c 9.262,0 16.663,-7.411 16.663,-16.666 0,-9.255 -7.401,-16.654 -16.663,-16.654 -9.253,0 -16.658,7.399 -16.658,16.654 0,9.255 7.405,16.666 16.658,16.666"
             id="path58"
             style="fill:#373535;fill-opacity:1;fill-rule:nonzero;stroke:none" /></g><g
           transform="translate(1600.8682,463.1494)"
           id="g60"><path
             d="m 0,0 c 6.709,0 12.497,-3.938 15.043,-9.721 8.793,4.86 18.742,7.866 29.386,7.866 32.633,0 59.24,-26.614 59.24,-59.241 l 0,-44.429 c 0,-8.094 -6.709,-14.811 -14.81,-14.811 -8.099,0 -14.808,6.717 -14.808,14.811 l 0,44.429 c 0,16.426 -13.189,29.62 -29.622,29.62 -16.427,0 -29.621,-13.194 -29.621,-29.62 l 0,-44.429 c 0,-8.094 -6.709,-14.811 -14.808,-14.811 -8.102,0 -14.812,6.717 -14.812,14.811 l 0,44.429 c 0,10.645 2.779,20.594 7.872,29.154 -5.788,2.777 -9.721,8.571 -9.721,15.276 C -16.661,-7.41 -9.257,0 0,0"
             id="path62"
             style="fill:#373535;fill-opacity:1;fill-rule:nonzero;stroke:none" /></g><g
           transform="translate(1773.0146,372.4346)"
           id="g64"><path
             d="m 0,0 c 16.43,0 29.618,13.193 29.618,29.619 0,16.426 -13.188,29.62 -29.618,29.62 -16.429,0 -29.622,-13.194 -29.622,-29.62 C -29.622,13.193 -16.429,0 0,0 m 28.698,-22.211 c -8.562,-4.633 -18.284,-7.41 -28.698,-7.41 -32.628,0 -59.243,26.615 -59.243,59.24 0,32.627 26.615,59.241 59.243,59.241 10.646,0 20.596,-3.006 29.156,-7.866 2.779,5.783 8.563,9.721 15.273,9.721 9.26,0 16.665,-7.41 16.665,-16.666 0,-6.705 -3.934,-12.499 -9.72,-15.277 4.859,-8.559 7.865,-18.508 7.865,-29.153 l 0,-44.43 c 0,-32.627 -26.61,-59.242 -59.239,-59.242 -15.04,0 -30.313,5.783 -41.884,17.36 -2.777,2.779 -4.399,6.478 -4.399,10.418 0,7.867 6.945,14.808 14.81,14.808 3.934,0 7.64,-1.627 10.417,-4.404 6.016,-5.783 13.42,-8.561 21.056,-8.561 13.886,0 25.458,9.493 28.698,22.221"
             id="path66"
             style="fill:#373535;fill-opacity:1;fill-rule:nonzero;stroke:none" /></g><g
           transform="translate(1041.873,262.6475)"
           id="g68"><path
             d="m 0,0 0,-44.43 51.836,0 c 12.267,0 22.215,9.95 22.215,22.219 C 74.051,-9.949 64.103,0 51.836,0 L 0,0 z m 0,-74.051 0,-29.621 c 0,-8.094 -6.715,-14.81 -14.81,-14.81 -8.099,0 -14.81,6.716 -14.81,14.81 l 0,118.483 c 0,8.105 6.711,14.81 14.81,14.81 l 66.646,0 c 28.692,0 51.835,-23.133 51.835,-51.832 0,-28.697 -23.143,-51.84 -51.835,-51.84 l -51.836,0 z"
             id="path70"
             style="fill:#373535;fill-opacity:1;fill-rule:nonzero;stroke:none" /></g><g
           transform="translate(1188.0996,158.9756)"
           id="g72"><path
             d="m 0,0 c 0,-8.094 -6.711,-14.811 -14.811,-14.811 -8.094,0 -14.808,6.717 -14.808,14.811 l 0,133.293 c 0,8.103 6.714,14.809 14.808,14.809 8.1,0 14.811,-6.706 14.811,-14.809 L 0,0 z"
             id="path74"
             style="fill:#373535;fill-opacity:1;fill-rule:nonzero;stroke:none" /></g><g
           transform="translate(1260.2891,173.7881)"
           id="g76"><path
             d="M 0,0 C 16.433,0 29.62,13.191 29.62,29.619 29.62,46.057 16.433,59.238 0,59.238 -16.43,59.238 -29.619,46.057 -29.619,29.619 -29.619,13.191 -16.43,0 0,0 m 0,88.859 c 32.632,0 59.242,-26.603 59.242,-59.24 0,-10.644 -3.011,-20.594 -7.872,-29.383 5.789,-2.549 9.721,-8.334 9.721,-15.049 0,-9.253 -7.404,-16.656 -16.659,-16.656 -6.712,0 -12.494,3.93 -15.273,9.723 -8.559,-5.1 -18.513,-7.877 -29.159,-7.877 -32.631,0 -59.239,26.615 -59.239,59.242 0,32.637 26.608,59.24 59.239,59.24"
             id="path78"
             style="fill:#373535;fill-opacity:1;fill-rule:nonzero;stroke:none" /></g><g
           transform="translate(1350.9854,264.5029)"
           id="g80"><path
             d="m 0,0 c 6.711,0 12.493,-3.938 15.038,-9.723 8.793,4.862 18.749,7.868 29.393,7.868 32.626,0 59.24,-26.604 59.24,-59.241 l 0,-44.431 c 0,-8.094 -6.71,-14.811 -14.811,-14.811 -8.098,0 -14.808,6.717 -14.808,14.811 l 0,44.431 c 0,16.438 -13.196,29.619 -29.621,29.619 -16.434,0 -29.622,-13.181 -29.622,-29.619 l 0,-44.431 c 0,-8.094 -6.71,-14.811 -14.809,-14.811 -8.101,0 -14.81,6.717 -14.81,14.811 l 0,44.431 c 0,10.643 2.772,20.604 7.867,29.164 -5.79,2.78 -9.717,8.561 -9.717,15.266 C -16.66,-7.4 -9.261,0 0,0"
             id="path82"
             style="fill:#373535;fill-opacity:1;fill-rule:nonzero;stroke:none" /></g><g
           transform="translate(1497.4453,218.2178)"
           id="g84"><path
             d="M 0,0 51.367,0 C 46.28,8.799 36.558,14.809 25.681,14.809 14.575,14.809 5.088,8.799 0,0 m 25.681,-74.053 c -32.625,0 -59.241,26.615 -59.241,59.242 0,32.637 26.616,59.241 59.241,59.241 32.632,0 59.24,-26.604 59.24,-59.241 0,-8.093 -6.71,-14.81 -14.811,-14.81 l -70.11,0 C 5.088,-38.639 14.575,-44.43 25.681,-44.43 l 14.81,0 c 8.099,0 14.812,-6.707 14.812,-14.812 0,-8.094 -6.713,-14.811 -14.812,-14.811 l -14.81,0 z"
             id="path86"
             style="fill:#373535;fill-opacity:1;fill-rule:nonzero;stroke:none" /></g><g
           transform="translate(1608.2764,262.6475)"
           id="g88"><path
             d="m 0,0 0,14.811 c 0,8.105 6.712,14.81 14.811,14.81 8.1,0 14.809,-6.705 14.809,-14.81 L 29.62,0 51.835,0 c 8.102,0 14.811,-6.705 14.811,-14.811 0,-8.093 -6.709,-14.81 -14.811,-14.81 l -22.215,0 0,-44.43 c 0,-8.094 6.71,-14.808 14.812,-14.808 l 7.403,0 c 8.102,0 14.811,-6.707 14.811,-14.813 0,-8.094 -6.709,-14.81 -14.811,-14.81 l -7.403,0 C 19.9,-118.482 0,-98.572 0,-74.051 l 0,44.43 -11.11,0 c -8.099,0 -14.811,6.717 -14.811,14.81 0,8.106 6.712,14.811 14.811,14.811 L 0,0 z"
             id="path90"
             style="fill:#373535;fill-opacity:1;fill-rule:nonzero;stroke:none" /></g></g></g></g></svg>