<?xml version="1.0" encoding="UTF-8" standalone="no"?>
<!-- Created with Inkscape (http://www.inkscape.org/) -->

<svg
   xmlns:dc="http://purl.org/dc/elements/1.1/"
   xmlns:cc="http://creativecommons.org/ns#"
   xmlns:rdf="http://www.w3.org/1999/02/22-rdf-syntax-ns#"
   xmlns:svg="http://www.w3.org/2000/svg"
   xmlns="http://www.w3.org/2000/svg"
   xmlns:sodipodi="http://sodipodi.sourceforge.net/DTD/sodipodi-0.dtd"
   xmlns:inkscape="http://www.inkscape.org/namespaces/inkscape"
   width="179.61429mm"
   height="108.4711mm"
   viewBox="0 0 636.42858 384.34641"
   id="svg2"
   version="1.1"
   inkscape:version="0.91 r13725"
   sodipodi:docname="perfgraph.svg">
  <defs
     id="defs4">
    <marker
       inkscape:stockid="Arrow1Send"
       orient="auto"
       refY="0"
       refX="0"
       id="Arrow1Send"
       style="overflow:visible"
       inkscape:isstock="true">
      <path
         id="path4180"
         d="M 0,0 5,-5 -12.5,0 5,5 0,0 Z"
         style="fill:#000000;fill-opacity:1;fill-rule:evenodd;stroke:#000000;stroke-width:1pt;stroke-opacity:1"
         transform="matrix(-0.2,0,0,-0.2,-1.2,0)"
         inkscape:connector-curvature="0" />
    </marker>
    <marker
       inkscape:stockid="Arrow1Sstart"
       orient="auto"
       refY="0"
       refX="0"
       id="Arrow1Sstart"
       style="overflow:visible"
       inkscape:isstock="true">
      <path
         id="path4177"
         d="M 0,0 5,-5 -12.5,0 5,5 0,0 Z"
         style="fill:#000000;fill-opacity:1;fill-rule:evenodd;stroke:#000000;stroke-width:1pt;stroke-opacity:1"
         transform="matrix(0.2,0,0,0.2,1.2,0)"
         inkscape:connector-curvature="0" />
    </marker>
  </defs>
  <sodipodi:namedview
     id="base"
     pagecolor="#ffffff"
     bordercolor="#666666"
     borderopacity="1.0"
     inkscape:pageopacity="1"
     inkscape:pageshadow="2"
     inkscape:zoom="1.4"
     inkscape:cx="295.99718"
     inkscape:cy="154.96418"
     inkscape:document-units="px"
     inkscape:current-layer="layer2"
     showgrid="false"
     inkscape:window-width="1600"
     inkscape:window-height="853"
     inkscape:window-x="-2"
     inkscape:window-y="-3"
     inkscape:window-maximized="1"
     showguides="true"
     inkscape:guide-bbox="true"
     fit-margin-top="0"
     fit-margin-left="0"
     fit-margin-right="0"
     fit-margin-bottom="0">
    <sodipodi:guide
       position="58.299759,253.54108"
       orientation="1,0"
       id="guide3336" />
    <sodipodi:guide
       position="516.87117,64.969647"
       orientation="0,1"
       id="guide3338" />
    <sodipodi:guide
       position="311.15689,121.39822"
       orientation="0,1"
       id="guide4493" />
    <sodipodi:guide
       position="486.87117,4.2553572"
       orientation="1,0"
       id="guide4495" />
    <sodipodi:guide
       position="125.44261,44.969647"
       orientation="0,1"
       id="guide4499" />
  </sodipodi:namedview>
  <metadata
     id="metadata7">
    <rdf:RDF>
      <cc:Work
         rdf:about="">
        <dc:format>image/svg+xml</dc:format>
        <dc:type
           rdf:resource="http://purl.org/dc/dcmitype/StillImage" />
        <dc:title></dc:title>
      </cc:Work>
    </rdf:RDF>
  </metadata>
  <g
     inkscape:groupmode="layer"
     id="layer2"
     inkscape:label="Layer 2"
     transform="translate(0.35713884,0.16866194)">
    <rect
       style="font-style:normal;font-weight:normal;font-size:12.25px;line-height:125%;font-family:'Times New Roman';-inkscape-font-specification:'Times New Roman';letter-spacing:0px;word-spacing:0px;opacity:1;fill:#ffffff;fill-opacity:1;stroke:none;stroke-width:5;stroke-linecap:butt;stroke-linejoin:miter;stroke-miterlimit:4;stroke-dasharray:10, 10;stroke-dashoffset:0;stroke-opacity:1"
       id="rect4661"
       width="636.42859"
       height="384.34641"
       x="-0.35713884"
       y="-0.16866194" />
  </g>
  <g
     inkscape:label="Layer 1"
     inkscape:groupmode="layer"
     id="layer1"
     transform="translate(-80.27167,-281.55686)">
    <path
       style="fill:none;fill-rule:evenodd;stroke:#000000;stroke-width:5;stroke-linecap:butt;stroke-linejoin:miter;stroke-miterlimit:4;stroke-dasharray:none;stroke-opacity:1;marker-start:url(#Arrow1Sstart);marker-end:url(#Arrow1Send)"
       d="m 138.57143,325.93363 0,275 440,0"
       id="path3359"
       inkscape:connector-curvature="0" />
    <rect
       style="opacity:1;fill:#138800;fill-opacity:1;stroke:#000000;stroke-width:5;stroke-miterlimit:4;stroke-dasharray:none;stroke-opacity:1"
       id="rect4473"
       width="54.285713"
       height="257.14285"
       x="169.28572"
       y="343.79077" />
    <rect
       y="365.21933"
       x="268.09521"
       height="235.71425"
       width="54.285706"
       id="rect4487"
       style="opacity:1;fill:#fabb00;fill-opacity:1;stroke:#000000;stroke-width:5;stroke-miterlimit:4;stroke-dasharray:none;stroke-opacity:1" />
    <rect
       style="opacity:1;fill:#007088;fill-opacity:1;stroke:#000000;stroke-width:5;stroke-miterlimit:4;stroke-dasharray:none;stroke-opacity:1"
       id="rect4489"
       width="54.285706"
       height="203.5714"
       x="366.90479"
       y="397.36221" />
    <rect
       y="518.07648"
       x="465.71432"
       height="82.857109"
       width="54.285736"
       id="rect4491"
       style="opacity:1;fill:#880049;fill-opacity:1;stroke:#000000;stroke-width:5;stroke-miterlimit:4;stroke-dasharray:none;stroke-opacity:1" />
    <path
       style="fill:none;fill-rule:evenodd;stroke:#d40000;stroke-width:5;stroke-linecap:butt;stroke-linejoin:miter;stroke-miterlimit:4;stroke-dasharray:10, 10;stroke-dashoffset:0;stroke-opacity:1"
       d="m 138.57143,544.50507 428.57143,0"
       id="path4497"
       inkscape:connector-curvature="0" />
    <g
       style="font-style:normal;font-weight:normal;font-size:12.25px;line-height:125%;font-family:'Times New Roman';-inkscape-font-specification:'Times New Roman';letter-spacing:0px;word-spacing:0px;fill:#000000;fill-opacity:1;stroke:none;stroke-width:1px;stroke-linecap:butt;stroke-linejoin:miter;stroke-opacity:1"
       id="text4501">
      <path
         d="m 171.43207,623.66561 q -0.23275,-0.294 -0.637,-0.42875 -0.392,-0.147 -0.74725,-0.147 -0.20825,0 -0.42875,0.049 -0.2205,0.049 -0.4165,0.15925 -0.196,0.098 -0.3185,0.2695 -0.1225,0.1715 -0.1225,0.4165 0,0.392 0.294,0.60025 0.294,0.20825 0.735,0.35525 0.45325,0.147 0.96775,0.294 0.5145,0.147 0.9555,0.4165 0.45325,0.2695 0.74725,0.72275 0.294,0.45325 0.294,1.21275 0,0.72275 -0.2695,1.26175 -0.2695,0.539 -0.735,0.89425 -0.45325,0.35525 -1.06575,0.52675 -0.60025,0.1715 -1.274,0.1715 -0.84525,0 -1.568,-0.25725 -0.72275,-0.25725 -1.3475,-0.833 l 1.35975,-1.4945 q 0.294,0.392 0.735,0.6125 0.45325,0.20825 0.931,0.20825 0.23275,0 0.4655,-0.049 0.245,-0.0612 0.42875,-0.1715 0.196,-0.11025 0.30625,-0.28175 0.1225,-0.1715 0.1225,-0.40425 0,-0.392 -0.30625,-0.6125 -0.294,-0.23275 -0.74725,-0.392 -0.45325,-0.15925 -0.98,-0.3185 -0.52675,-0.15925 -0.98,-0.42875 -0.45325,-0.2695 -0.7595,-0.7105 -0.294,-0.441 -0.294,-1.16375 0,-0.69825 0.2695,-1.225 0.28175,-0.52675 0.735,-0.882 0.4655,-0.35525 1.06575,-0.52675 0.60025,-0.18375 1.23725,-0.18375 0.735,0 1.421,0.20825 0.686,0.20825 1.23725,0.69825 l -1.31075,1.43325 z"
         style="font-style:normal;font-variant:normal;font-weight:800;font-stretch:normal;font-family:Avenir;-inkscape-font-specification:'Avenir Ultra-Bold'"
         id="path4608"
         inkscape:connector-curvature="0" />
      <path
         d="m 173.7255,627.24261 q 0,-0.7105 0.25725,-1.28625 0.25725,-0.57575 0.69825,-0.98 0.45325,-0.4165 1.0535,-0.637 0.6125,-0.2205 1.2985,-0.2205 0.686,0 1.28625,0.2205 0.6125,0.2205 1.0535,0.637 0.45325,0.40425 0.7105,0.98 0.25725,0.57575 0.25725,1.28625 0,0.7105 -0.25725,1.28625 -0.25725,0.57575 -0.7105,0.99225 -0.441,0.40425 -1.0535,0.62475 -0.60025,0.2205 -1.28625,0.2205 -0.686,0 -1.2985,-0.2205 -0.60025,-0.2205 -1.0535,-0.62475 -0.441,-0.4165 -0.69825,-0.99225 -0.25725,-0.57575 -0.25725,-1.28625 z m 1.8375,0 q 0,0.67375 0.37975,1.09025 0.392,0.4165 1.09025,0.4165 0.69825,0 1.078,-0.4165 0.392,-0.4165 0.392,-1.09025 0,-0.67375 -0.392,-1.09025 -0.37975,-0.4165 -1.078,-0.4165 -0.69825,0 -1.09025,0.4165 -0.37975,0.4165 -0.37975,1.09025 z"
         style="font-style:normal;font-variant:normal;font-weight:800;font-stretch:normal;font-family:Avenir;-inkscape-font-specification:'Avenir Ultra-Bold'"
         id="path4610"
         inkscape:connector-curvature="0" />
      <path
         d="m 181.43535,620.95836 1.8375,0 0,9.261 -1.8375,0 0,-9.261 z"
         style="font-style:normal;font-variant:normal;font-weight:800;font-stretch:normal;font-family:Avenir;-inkscape-font-specification:'Avenir Ultra-Bold'"
         id="path4612"
         inkscape:connector-curvature="0" />
      <path
         d="m 190.32598,630.21936 -1.764,0 0,-0.8085 -0.0245,0 q -0.098,0.1715 -0.25725,0.343 -0.147,0.1715 -0.3675,0.30625 -0.2205,0.13475 -0.50225,0.2205 -0.28175,0.0857 -0.6125,0.0857 -0.69825,0 -1.13925,-0.20825 -0.42875,-0.2205 -0.67375,-0.60025 -0.23275,-0.37975 -0.3185,-0.89425 -0.0735,-0.5145 -0.0735,-1.11475 l 0,-3.283 1.8375,0 0,2.9155 q 0,0.25725 0.0123,0.539 0.0245,0.2695 0.11025,0.50225 0.098,0.23275 0.28175,0.37975 0.196,0.147 0.55125,0.147 0.35525,0 0.57575,-0.1225 0.2205,-0.13475 0.33075,-0.343 0.1225,-0.2205 0.15925,-0.49 0.0368,-0.2695 0.0368,-0.5635 l 0,-2.9645 1.8375,0 0,5.9535 z"
         style="font-style:normal;font-variant:normal;font-weight:800;font-stretch:normal;font-family:Avenir;-inkscape-font-specification:'Avenir Ultra-Bold'"
         id="path4614"
         inkscape:connector-curvature="0" />
      <path
         d="m 195.68191,625.73586 -1.617,0 0,1.9845 q 0,0.245 0.0245,0.45325 0.0245,0.196 0.11025,0.343 0.0858,0.147 0.25725,0.23275 0.18375,0.0735 0.47775,0.0735 0.147,0 0.37975,-0.0245 0.245,-0.0367 0.3675,-0.147 l 0,1.53125 q -0.30625,0.11025 -0.637,0.147 -0.33075,0.0367 -0.64925,0.0367 -0.4655,0 -0.8575,-0.098 -0.392,-0.098 -0.686,-0.30625 -0.294,-0.2205 -0.4655,-0.5635 -0.15925,-0.343 -0.15925,-0.833 l 0,-2.82975 -1.176,0 0,-1.47 1.176,0 0,-1.764 1.8375,0 0,1.764 1.617,0 0,1.47 z"
         style="font-style:normal;font-variant:normal;font-weight:800;font-stretch:normal;font-family:Avenir;-inkscape-font-specification:'Avenir Ultra-Bold'"
         id="path4616"
         inkscape:connector-curvature="0" />
      <path
         d="m 196.62822,624.26586 1.8375,0 0,5.9535 -1.8375,0 0,-5.9535 z m -0.147,-1.87425 q 0,-0.441 0.30625,-0.74725 0.3185,-0.3185 0.7595,-0.3185 0.441,0 0.74725,0.3185 0.3185,0.30625 0.3185,0.74725 0,0.441 -0.3185,0.7595 -0.30625,0.30625 -0.74725,0.30625 -0.441,0 -0.7595,-0.30625 -0.30625,-0.3185 -0.30625,-0.7595 z"
         style="font-style:normal;font-variant:normal;font-weight:800;font-stretch:normal;font-family:Avenir;-inkscape-font-specification:'Avenir Ultra-Bold'"
         id="path4618"
         inkscape:connector-curvature="0" />
      <path
         d="m 199.56535,627.24261 q 0,-0.7105 0.25725,-1.28625 0.25725,-0.57575 0.69825,-0.98 0.45325,-0.4165 1.0535,-0.637 0.6125,-0.2205 1.2985,-0.2205 0.686,0 1.28625,0.2205 0.6125,0.2205 1.0535,0.637 0.45325,0.40425 0.7105,0.98 0.25725,0.57575 0.25725,1.28625 0,0.7105 -0.25725,1.28625 -0.25725,0.57575 -0.7105,0.99225 -0.441,0.40425 -1.0535,0.62475 -0.60025,0.2205 -1.28625,0.2205 -0.686,0 -1.2985,-0.2205 -0.60025,-0.2205 -1.0535,-0.62475 -0.441,-0.4165 -0.69825,-0.99225 -0.25725,-0.57575 -0.25725,-1.28625 z m 1.8375,0 q 0,0.67375 0.37975,1.09025 0.392,0.4165 1.09025,0.4165 0.69825,0 1.078,-0.4165 0.392,-0.4165 0.392,-1.09025 0,-0.67375 -0.392,-1.09025 -0.37975,-0.4165 -1.078,-0.4165 -0.69825,0 -1.09025,0.4165 -0.37975,0.4165 -0.37975,1.09025 z"
         style="font-style:normal;font-variant:normal;font-weight:800;font-stretch:normal;font-family:Avenir;-inkscape-font-specification:'Avenir Ultra-Bold'"
         id="path4620"
         inkscape:connector-curvature="0" />
      <path
         d="m 207.25069,624.26586 1.764,0 0,0.8085 0.0245,0 q 0.0858,-0.1715 0.245,-0.343 0.15925,-0.1715 0.37975,-0.30625 0.2205,-0.13475 0.50225,-0.2205 0.28175,-0.0857 0.6125,-0.0857 0.69825,0 1.127,0.2205 0.42875,0.20825 0.6615,0.588 0.245,0.37975 0.33075,0.89425 0.0857,0.5145 0.0857,1.11475 l 0,3.283 -1.8375,0 0,-2.9155 q 0,-0.25725 -0.0245,-0.52675 -0.0122,-0.28175 -0.11025,-0.5145 -0.0857,-0.23275 -0.28175,-0.37975 -0.18375,-0.147 -0.539,-0.147 -0.35525,0 -0.57575,0.13475 -0.2205,0.1225 -0.343,0.343 -0.11025,0.20825 -0.147,0.47775 -0.0368,0.2695 -0.0368,0.5635 l 0,2.9645 -1.8375,0 0,-5.9535 z"
         style="font-style:normal;font-variant:normal;font-weight:800;font-stretch:normal;font-family:Avenir;-inkscape-font-specification:'Avenir Ultra-Bold'"
         id="path4622"
         inkscape:connector-curvature="0" />
      <path
         d="m 221.00859,621.54636 1.58025,0 3.773,8.673 -2.156,0 -0.74725,-1.8375 -3.36875,0 -0.72275,1.8375 -2.107,0 3.7485,-8.673 z m 0.735,2.5235 -1.0535,2.695 2.11925,0 -1.06575,-2.695 z"
         style="font-style:normal;font-variant:normal;font-weight:800;font-stretch:normal;font-family:Avenir;-inkscape-font-specification:'Avenir Ultra-Bold'"
         id="path4624"
         inkscape:connector-curvature="0" />
    </g>
    <g
       style="font-style:normal;font-weight:normal;font-size:12.25px;line-height:125%;font-family:'Times New Roman';-inkscape-font-specification:'Times New Roman';letter-spacing:0px;word-spacing:0px;fill:#000000;fill-opacity:1;stroke:none;stroke-width:1px;stroke-linecap:butt;stroke-linejoin:miter;stroke-opacity:1"
       id="text4505">
      <path
         d="m 270.93982,623.66561 q -0.23275,-0.294 -0.637,-0.42875 -0.392,-0.147 -0.74725,-0.147 -0.20825,0 -0.42875,0.049 -0.2205,0.049 -0.4165,0.15925 -0.196,0.098 -0.3185,0.2695 -0.1225,0.1715 -0.1225,0.4165 0,0.392 0.294,0.60025 0.294,0.20825 0.735,0.35525 0.45325,0.147 0.96775,0.294 0.5145,0.147 0.9555,0.4165 0.45325,0.2695 0.74725,0.72275 0.294,0.45325 0.294,1.21275 0,0.72275 -0.2695,1.26175 -0.2695,0.539 -0.735,0.89425 -0.45325,0.35525 -1.06575,0.52675 -0.60025,0.1715 -1.274,0.1715 -0.84525,0 -1.568,-0.25725 -0.72275,-0.25725 -1.3475,-0.833 l 1.35975,-1.4945 q 0.294,0.392 0.735,0.6125 0.45325,0.20825 0.931,0.20825 0.23275,0 0.4655,-0.049 0.245,-0.0612 0.42875,-0.1715 0.196,-0.11025 0.30625,-0.28175 0.1225,-0.1715 0.1225,-0.40425 0,-0.392 -0.30625,-0.6125 -0.294,-0.23275 -0.74725,-0.392 -0.45325,-0.15925 -0.98,-0.3185 -0.52675,-0.15925 -0.98,-0.42875 -0.45325,-0.2695 -0.7595,-0.7105 -0.294,-0.441 -0.294,-1.16375 0,-0.69825 0.2695,-1.225 0.28175,-0.52675 0.735,-0.882 0.4655,-0.35525 1.06575,-0.52675 0.60025,-0.18375 1.23725,-0.18375 0.735,0 1.421,0.20825 0.686,0.20825 1.23725,0.69825 l -1.31075,1.43325 z"
         style="font-style:normal;font-variant:normal;font-weight:800;font-stretch:normal;font-family:Avenir;-inkscape-font-specification:'Avenir Ultra-Bold'"
         id="path4589"
         inkscape:connector-curvature="0" />
      <path
         d="m 273.23325,627.24261 q 0,-0.7105 0.25725,-1.28625 0.25725,-0.57575 0.69825,-0.98 0.45325,-0.4165 1.0535,-0.637 0.6125,-0.2205 1.2985,-0.2205 0.686,0 1.28625,0.2205 0.6125,0.2205 1.0535,0.637 0.45325,0.40425 0.7105,0.98 0.25725,0.57575 0.25725,1.28625 0,0.7105 -0.25725,1.28625 -0.25725,0.57575 -0.7105,0.99225 -0.441,0.40425 -1.0535,0.62475 -0.60025,0.2205 -1.28625,0.2205 -0.686,0 -1.2985,-0.2205 -0.60025,-0.2205 -1.0535,-0.62475 -0.441,-0.4165 -0.69825,-0.99225 -0.25725,-0.57575 -0.25725,-1.28625 z m 1.8375,0 q 0,0.67375 0.37975,1.09025 0.392,0.4165 1.09025,0.4165 0.69825,0 1.078,-0.4165 0.392,-0.4165 0.392,-1.09025 0,-0.67375 -0.392,-1.09025 -0.37975,-0.4165 -1.078,-0.4165 -0.69825,0 -1.09025,0.4165 -0.37975,0.4165 -0.37975,1.09025 z"
         style="font-style:normal;font-variant:normal;font-weight:800;font-stretch:normal;font-family:Avenir;-inkscape-font-specification:'Avenir Ultra-Bold'"
         id="path4591"
         inkscape:connector-curvature="0" />
      <path
         d="m 280.9431,620.95836 1.8375,0 0,9.261 -1.8375,0 0,-9.261 z"
         style="font-style:normal;font-variant:normal;font-weight:800;font-stretch:normal;font-family:Avenir;-inkscape-font-specification:'Avenir Ultra-Bold'"
         id="path4593"
         inkscape:connector-curvature="0" />
      <path
         d="m 289.83373,630.21936 -1.764,0 0,-0.8085 -0.0245,0 q -0.098,0.1715 -0.25725,0.343 -0.147,0.1715 -0.3675,0.30625 -0.2205,0.13475 -0.50225,0.2205 -0.28175,0.0857 -0.6125,0.0857 -0.69825,0 -1.13925,-0.20825 -0.42875,-0.2205 -0.67375,-0.60025 -0.23275,-0.37975 -0.3185,-0.89425 -0.0735,-0.5145 -0.0735,-1.11475 l 0,-3.283 1.8375,0 0,2.9155 q 0,0.25725 0.0123,0.539 0.0245,0.2695 0.11025,0.50225 0.098,0.23275 0.28175,0.37975 0.196,0.147 0.55125,0.147 0.35525,0 0.57575,-0.1225 0.2205,-0.13475 0.33075,-0.343 0.1225,-0.2205 0.15925,-0.49 0.0368,-0.2695 0.0368,-0.5635 l 0,-2.9645 1.8375,0 0,5.9535 z"
         style="font-style:normal;font-variant:normal;font-weight:800;font-stretch:normal;font-family:Avenir;-inkscape-font-specification:'Avenir Ultra-Bold'"
         id="path4595"
         inkscape:connector-curvature="0" />
      <path
         d="m 295.18966,625.73586 -1.617,0 0,1.9845 q 0,0.245 0.0245,0.45325 0.0245,0.196 0.11025,0.343 0.0858,0.147 0.25725,0.23275 0.18375,0.0735 0.47775,0.0735 0.147,0 0.37975,-0.0245 0.245,-0.0367 0.3675,-0.147 l 0,1.53125 q -0.30625,0.11025 -0.637,0.147 -0.33075,0.0367 -0.64925,0.0367 -0.4655,0 -0.8575,-0.098 -0.392,-0.098 -0.686,-0.30625 -0.294,-0.2205 -0.4655,-0.5635 -0.15925,-0.343 -0.15925,-0.833 l 0,-2.82975 -1.176,0 0,-1.47 1.176,0 0,-1.764 1.8375,0 0,1.764 1.617,0 0,1.47 z"
         style="font-style:normal;font-variant:normal;font-weight:800;font-stretch:normal;font-family:Avenir;-inkscape-font-specification:'Avenir Ultra-Bold'"
         id="path4597"
         inkscape:connector-curvature="0" />
      <path
         d="m 296.13597,624.26586 1.8375,0 0,5.9535 -1.8375,0 0,-5.9535 z m -0.147,-1.87425 q 0,-0.441 0.30625,-0.74725 0.3185,-0.3185 0.7595,-0.3185 0.441,0 0.74725,0.3185 0.3185,0.30625 0.3185,0.74725 0,0.441 -0.3185,0.7595 -0.30625,0.30625 -0.74725,0.30625 -0.441,0 -0.7595,-0.30625 -0.30625,-0.3185 -0.30625,-0.7595 z"
         style="font-style:normal;font-variant:normal;font-weight:800;font-stretch:normal;font-family:Avenir;-inkscape-font-specification:'Avenir Ultra-Bold'"
         id="path4599"
         inkscape:connector-curvature="0" />
      <path
         d="m 299.0731,627.24261 q 0,-0.7105 0.25725,-1.28625 0.25725,-0.57575 0.69825,-0.98 0.45325,-0.4165 1.0535,-0.637 0.6125,-0.2205 1.2985,-0.2205 0.686,0 1.28625,0.2205 0.6125,0.2205 1.0535,0.637 0.45325,0.40425 0.7105,0.98 0.25725,0.57575 0.25725,1.28625 0,0.7105 -0.25725,1.28625 -0.25725,0.57575 -0.7105,0.99225 -0.441,0.40425 -1.0535,0.62475 -0.60025,0.2205 -1.28625,0.2205 -0.686,0 -1.2985,-0.2205 -0.60025,-0.2205 -1.0535,-0.62475 -0.441,-0.4165 -0.69825,-0.99225 -0.25725,-0.57575 -0.25725,-1.28625 z m 1.8375,0 q 0,0.67375 0.37975,1.09025 0.392,0.4165 1.09025,0.4165 0.69825,0 1.078,-0.4165 0.392,-0.4165 0.392,-1.09025 0,-0.67375 -0.392,-1.09025 -0.37975,-0.4165 -1.078,-0.4165 -0.69825,0 -1.09025,0.4165 -0.37975,0.4165 -0.37975,1.09025 z"
         style="font-style:normal;font-variant:normal;font-weight:800;font-stretch:normal;font-family:Avenir;-inkscape-font-specification:'Avenir Ultra-Bold'"
         id="path4601"
         inkscape:connector-curvature="0" />
      <path
         d="m 306.75844,624.26586 1.764,0 0,0.8085 0.0245,0 q 0.0858,-0.1715 0.245,-0.343 0.15925,-0.1715 0.37975,-0.30625 0.2205,-0.13475 0.50225,-0.2205 0.28175,-0.0857 0.6125,-0.0857 0.69825,0 1.127,0.2205 0.42875,0.20825 0.6615,0.588 0.245,0.37975 0.33075,0.89425 0.0858,0.5145 0.0858,1.11475 l 0,3.283 -1.8375,0 0,-2.9155 q 0,-0.25725 -0.0245,-0.52675 -0.0122,-0.28175 -0.11025,-0.5145 -0.0857,-0.23275 -0.28175,-0.37975 -0.18375,-0.147 -0.539,-0.147 -0.35525,0 -0.57575,0.13475 -0.2205,0.1225 -0.343,0.343 -0.11025,0.20825 -0.147,0.47775 -0.0368,0.2695 -0.0368,0.5635 l 0,2.9645 -1.8375,0 0,-5.9535 z"
         style="font-style:normal;font-variant:normal;font-weight:800;font-stretch:normal;font-family:Avenir;-inkscape-font-specification:'Avenir Ultra-Bold'"
         id="path4603"
         inkscape:connector-curvature="0" />
      <path
         d="m 317.66209,621.54636 3.234,0 q 0.5635,0 1.127,0.0857 0.57575,0.0735 1.029,0.3185 0.45325,0.23275 0.735,0.6615 0.28175,0.42875 0.28175,1.13925 0,0.735 -0.4165,1.225 -0.40425,0.47775 -1.078,0.686 l 0,0.0245 q 0.42875,0.0612 0.77175,0.245 0.35525,0.1715 0.60025,0.45325 0.25725,0.2695 0.392,0.637 0.13475,0.3675 0.13475,0.784 0,0.686 -0.294,1.1515 -0.294,0.45325 -0.7595,0.735 -0.4655,0.28175 -1.0535,0.40425 -0.57575,0.1225 -1.1515,0.1225 l -3.5525,0 0,-8.673 z m 1.911,3.46675 1.38425,0 q 0.2205,0 0.42875,-0.049 0.2205,-0.049 0.392,-0.15925 0.1715,-0.11025 0.2695,-0.294 0.11025,-0.18375 0.11025,-0.441 0,-0.2695 -0.1225,-0.441 -0.11025,-0.18375 -0.294,-0.28175 -0.18375,-0.098 -0.4165,-0.13475 -0.23275,-0.049 -0.45325,-0.049 l -1.2985,0 0,1.84975 z m 0,3.58925 1.715,0 q 0.2205,0 0.441,-0.049 0.23275,-0.049 0.4165,-0.1715 0.18375,-0.1225 0.294,-0.3185 0.1225,-0.196 0.1225,-0.47775 0,-0.30625 -0.15925,-0.49 -0.147,-0.196 -0.37975,-0.294 -0.23275,-0.098 -0.50225,-0.13475 -0.2695,-0.0368 -0.50225,-0.0368 l -1.4455,0 0,1.97225 z"
         style="font-style:normal;font-variant:normal;font-weight:800;font-stretch:normal;font-family:Avenir;-inkscape-font-specification:'Avenir Ultra-Bold'"
         id="path4605"
         inkscape:connector-curvature="0" />
    </g>
    <g
       style="font-style:normal;font-weight:normal;font-size:12.25px;line-height:125%;font-family:'Times New Roman';-inkscape-font-specification:'Times New Roman';letter-spacing:0px;word-spacing:0px;fill:#000000;fill-opacity:1;stroke:none;stroke-width:1px;stroke-linecap:butt;stroke-linejoin:miter;stroke-opacity:1"
       id="text4509">
      <path
         d="m 369.47989,623.66561 q -0.23275,-0.294 -0.637,-0.42875 -0.392,-0.147 -0.74725,-0.147 -0.20825,0 -0.42875,0.049 -0.2205,0.049 -0.4165,0.15925 -0.196,0.098 -0.3185,0.2695 -0.1225,0.1715 -0.1225,0.4165 0,0.392 0.294,0.60025 0.294,0.20825 0.735,0.35525 0.45325,0.147 0.96775,0.294 0.5145,0.147 0.9555,0.4165 0.45325,0.2695 0.74725,0.72275 0.294,0.45325 0.294,1.21275 0,0.72275 -0.2695,1.26175 -0.2695,0.539 -0.735,0.89425 -0.45325,0.35525 -1.06575,0.52675 -0.60025,0.1715 -1.274,0.1715 -0.84525,0 -1.568,-0.25725 -0.72275,-0.25725 -1.3475,-0.833 l 1.35975,-1.4945 q 0.294,0.392 0.735,0.6125 0.45325,0.20825 0.931,0.20825 0.23275,0 0.4655,-0.049 0.245,-0.0612 0.42875,-0.1715 0.196,-0.11025 0.30625,-0.28175 0.1225,-0.1715 0.1225,-0.40425 0,-0.392 -0.30625,-0.6125 -0.294,-0.23275 -0.74725,-0.392 -0.45325,-0.15925 -0.98,-0.3185 -0.52675,-0.15925 -0.98,-0.42875 -0.45325,-0.2695 -0.7595,-0.7105 -0.294,-0.441 -0.294,-1.16375 0,-0.69825 0.2695,-1.225 0.28175,-0.52675 0.735,-0.882 0.4655,-0.35525 1.06575,-0.52675 0.60025,-0.18375 1.23725,-0.18375 0.735,0 1.421,0.20825 0.686,0.20825 1.23725,0.69825 l -1.31075,1.43325 z"
         style="font-style:normal;font-variant:normal;font-weight:800;font-stretch:normal;font-family:Avenir;-inkscape-font-specification:'Avenir Ultra-Bold'"
         id="path4570"
         inkscape:connector-curvature="0" />
      <path
         d="m 371.77332,627.24261 q 0,-0.7105 0.25725,-1.28625 0.25725,-0.57575 0.69825,-0.98 0.45325,-0.4165 1.0535,-0.637 0.6125,-0.2205 1.2985,-0.2205 0.686,0 1.28625,0.2205 0.6125,0.2205 1.0535,0.637 0.45325,0.40425 0.7105,0.98 0.25725,0.57575 0.25725,1.28625 0,0.7105 -0.25725,1.28625 -0.25725,0.57575 -0.7105,0.99225 -0.441,0.40425 -1.0535,0.62475 -0.60025,0.2205 -1.28625,0.2205 -0.686,0 -1.2985,-0.2205 -0.60025,-0.2205 -1.0535,-0.62475 -0.441,-0.4165 -0.69825,-0.99225 -0.25725,-0.57575 -0.25725,-1.28625 z m 1.8375,0 q 0,0.67375 0.37975,1.09025 0.392,0.4165 1.09025,0.4165 0.69825,0 1.078,-0.4165 0.392,-0.4165 0.392,-1.09025 0,-0.67375 -0.392,-1.09025 -0.37975,-0.4165 -1.078,-0.4165 -0.69825,0 -1.09025,0.4165 -0.37975,0.4165 -0.37975,1.09025 z"
         style="font-style:normal;font-variant:normal;font-weight:800;font-stretch:normal;font-family:Avenir;-inkscape-font-specification:'Avenir Ultra-Bold'"
         id="path4572"
         inkscape:connector-curvature="0" />
      <path
         d="m 379.48317,620.95836 1.8375,0 0,9.261 -1.8375,0 0,-9.261 z"
         style="font-style:normal;font-variant:normal;font-weight:800;font-stretch:normal;font-family:Avenir;-inkscape-font-specification:'Avenir Ultra-Bold'"
         id="path4574"
         inkscape:connector-curvature="0" />
      <path
         d="m 388.3738,630.21936 -1.764,0 0,-0.8085 -0.0245,0 q -0.098,0.1715 -0.25725,0.343 -0.147,0.1715 -0.3675,0.30625 -0.2205,0.13475 -0.50225,0.2205 -0.28175,0.0857 -0.6125,0.0857 -0.69825,0 -1.13925,-0.20825 -0.42875,-0.2205 -0.67375,-0.60025 -0.23275,-0.37975 -0.3185,-0.89425 -0.0735,-0.5145 -0.0735,-1.11475 l 0,-3.283 1.8375,0 0,2.9155 q 0,0.25725 0.0122,0.539 0.0245,0.2695 0.11025,0.50225 0.098,0.23275 0.28175,0.37975 0.196,0.147 0.55125,0.147 0.35525,0 0.57575,-0.1225 0.2205,-0.13475 0.33075,-0.343 0.1225,-0.2205 0.15925,-0.49 0.0367,-0.2695 0.0367,-0.5635 l 0,-2.9645 1.8375,0 0,5.9535 z"
         style="font-style:normal;font-variant:normal;font-weight:800;font-stretch:normal;font-family:Avenir;-inkscape-font-specification:'Avenir Ultra-Bold'"
         id="path4576"
         inkscape:connector-curvature="0" />
      <path
         d="m 393.72973,625.73586 -1.617,0 0,1.9845 q 0,0.245 0.0245,0.45325 0.0245,0.196 0.11025,0.343 0.0858,0.147 0.25725,0.23275 0.18375,0.0735 0.47775,0.0735 0.147,0 0.37975,-0.0245 0.245,-0.0367 0.3675,-0.147 l 0,1.53125 q -0.30625,0.11025 -0.637,0.147 -0.33075,0.0367 -0.64925,0.0367 -0.4655,0 -0.8575,-0.098 -0.392,-0.098 -0.686,-0.30625 -0.294,-0.2205 -0.4655,-0.5635 -0.15925,-0.343 -0.15925,-0.833 l 0,-2.82975 -1.176,0 0,-1.47 1.176,0 0,-1.764 1.8375,0 0,1.764 1.617,0 0,1.47 z"
         style="font-style:normal;font-variant:normal;font-weight:800;font-stretch:normal;font-family:Avenir;-inkscape-font-specification:'Avenir Ultra-Bold'"
         id="path4578"
         inkscape:connector-curvature="0" />
      <path
         d="m 394.67604,624.26586 1.8375,0 0,5.9535 -1.8375,0 0,-5.9535 z m -0.147,-1.87425 q 0,-0.441 0.30625,-0.74725 0.3185,-0.3185 0.7595,-0.3185 0.441,0 0.74725,0.3185 0.3185,0.30625 0.3185,0.74725 0,0.441 -0.3185,0.7595 -0.30625,0.30625 -0.74725,0.30625 -0.441,0 -0.7595,-0.30625 -0.30625,-0.3185 -0.30625,-0.7595 z"
         style="font-style:normal;font-variant:normal;font-weight:800;font-stretch:normal;font-family:Avenir;-inkscape-font-specification:'Avenir Ultra-Bold'"
         id="path4580"
         inkscape:connector-curvature="0" />
      <path
         d="m 397.61317,627.24261 q 0,-0.7105 0.25725,-1.28625 0.25725,-0.57575 0.69825,-0.98 0.45325,-0.4165 1.0535,-0.637 0.6125,-0.2205 1.2985,-0.2205 0.686,0 1.28625,0.2205 0.6125,0.2205 1.0535,0.637 0.45325,0.40425 0.7105,0.98 0.25725,0.57575 0.25725,1.28625 0,0.7105 -0.25725,1.28625 -0.25725,0.57575 -0.7105,0.99225 -0.441,0.40425 -1.0535,0.62475 -0.60025,0.2205 -1.28625,0.2205 -0.686,0 -1.2985,-0.2205 -0.60025,-0.2205 -1.0535,-0.62475 -0.441,-0.4165 -0.69825,-0.99225 -0.25725,-0.57575 -0.25725,-1.28625 z m 1.8375,0 q 0,0.67375 0.37975,1.09025 0.392,0.4165 1.09025,0.4165 0.69825,0 1.078,-0.4165 0.392,-0.4165 0.392,-1.09025 0,-0.67375 -0.392,-1.09025 -0.37975,-0.4165 -1.078,-0.4165 -0.69825,0 -1.09025,0.4165 -0.37975,0.4165 -0.37975,1.09025 z"
         style="font-style:normal;font-variant:normal;font-weight:800;font-stretch:normal;font-family:Avenir;-inkscape-font-specification:'Avenir Ultra-Bold'"
         id="path4582"
         inkscape:connector-curvature="0" />
      <path
         d="m 405.29851,624.26586 1.764,0 0,0.8085 0.0245,0 q 0.0857,-0.1715 0.245,-0.343 0.15925,-0.1715 0.37975,-0.30625 0.2205,-0.13475 0.50225,-0.2205 0.28175,-0.0857 0.6125,-0.0857 0.69825,0 1.127,0.2205 0.42875,0.20825 0.6615,0.588 0.245,0.37975 0.33075,0.89425 0.0858,0.5145 0.0858,1.11475 l 0,3.283 -1.8375,0 0,-2.9155 q 0,-0.25725 -0.0245,-0.52675 -0.0122,-0.28175 -0.11025,-0.5145 -0.0858,-0.23275 -0.28175,-0.37975 -0.18375,-0.147 -0.539,-0.147 -0.35525,0 -0.57575,0.13475 -0.2205,0.1225 -0.343,0.343 -0.11025,0.20825 -0.147,0.47775 -0.0367,0.2695 -0.0367,0.5635 l 0,2.9645 -1.8375,0 0,-5.9535 z"
         style="font-style:normal;font-variant:normal;font-weight:800;font-stretch:normal;font-family:Avenir;-inkscape-font-specification:'Avenir Ultra-Bold'"
         id="path4584"
         inkscape:connector-curvature="0" />
      <path
         d="m 421.87391,623.80036 q -0.28175,-0.343 -0.69825,-0.52675 -0.40425,-0.18375 -0.94325,-0.18375 -0.539,0 -1.0045,0.20825 -0.45325,0.20825 -0.79625,0.588 -0.33075,0.3675 -0.52675,0.882 -0.18375,0.5145 -0.18375,1.11475 0,0.6125 0.18375,1.127 0.196,0.50225 0.52675,0.882 0.33075,0.3675 0.77175,0.57575 0.45325,0.20825 0.96775,0.20825 0.588,0 1.04125,-0.245 0.45325,-0.245 0.74725,-0.686 l 1.5925,1.18825 q -0.55125,0.77175 -1.3965,1.13925 -0.84525,0.3675 -1.7395,0.3675 -1.01675,0 -1.87425,-0.3185 -0.8575,-0.3185 -1.48225,-0.9065 -0.62475,-0.60025 -0.98,-1.4455 -0.343,-0.84525 -0.343,-1.8865 0,-1.04125 0.343,-1.8865 0.35525,-0.84525 0.98,-1.43325 0.62475,-0.60025 1.48225,-0.91875 0.8575,-0.3185 1.87425,-0.3185 0.3675,0 0.7595,0.0735 0.40425,0.0612 0.784,0.20825 0.392,0.147 0.74725,0.392 0.35525,0.245 0.637,0.60025 l -1.47,1.2005 z"
         style="font-style:normal;font-variant:normal;font-weight:800;font-stretch:normal;font-family:Avenir;-inkscape-font-specification:'Avenir Ultra-Bold'"
         id="path4586"
         inkscape:connector-curvature="0" />
    </g>
    <g
       style="font-style:normal;font-weight:normal;font-size:12.25px;line-height:125%;font-family:'Times New Roman';-inkscape-font-specification:'Times New Roman';letter-spacing:0px;word-spacing:0px;fill:#000000;fill-opacity:1;stroke:none;stroke-width:1px;stroke-linecap:butt;stroke-linejoin:miter;stroke-opacity:1"
       id="text4513">
      <path
         d="m 467.14023,629.60686 q -0.84525,0.441 -1.764,0.637 -0.91875,0.196 -1.87425,0.196 -1.01675,0 -1.87425,-0.3185 -0.8575,-0.3185 -1.48225,-0.9065 -0.62475,-0.60025 -0.98,-1.4455 -0.343,-0.84525 -0.343,-1.8865 0,-1.04125 0.343,-1.8865 0.35525,-0.84525 0.98,-1.43325 0.62475,-0.60025 1.48225,-0.91875 0.8575,-0.3185 1.87425,-0.3185 1.04125,0 1.911,0.25725 0.882,0.245 1.5435,0.8575 l -1.3475,1.47 q -0.392,-0.40425 -0.882,-0.6125 -0.49,-0.20825 -1.225,-0.20825 -0.6125,0 -1.11475,0.20825 -0.49,0.20825 -0.84525,0.588 -0.35525,0.3675 -0.55125,0.882 -0.18375,0.5145 -0.18375,1.11475 0,0.6125 0.18375,1.127 0.196,0.50225 0.55125,0.882 0.35525,0.3675 0.84525,0.57575 0.50225,0.20825 1.11475,0.20825 0.62475,0 1.078,-0.13475 0.45325,-0.147 0.72275,-0.294 l 0,-1.40875 -1.55575,0 0,-1.764 3.39325,0 0,4.5325 z"
         style="font-style:normal;font-variant:normal;font-weight:800;font-stretch:normal;font-family:Avenir;-inkscape-font-specification:'Avenir Ultra-Bold'"
         id="path4549"
         inkscape:connector-curvature="0" />
      <path
         d="m 468.57769,624.26586 1.8375,0 0,0.9555 0.0245,0 q 0.294,-0.55125 0.69825,-0.82075 0.40425,-0.28175 1.01675,-0.28175 0.15925,0 0.3185,0.0122 0.15925,0.0122 0.294,0.049 l 0,1.67825 q -0.196,-0.0612 -0.392,-0.0857 -0.18375,-0.0367 -0.392,-0.0367 -0.52675,0 -0.833,0.147 -0.30625,0.147 -0.47775,0.4165 -0.15925,0.25725 -0.20825,0.62475 -0.049,0.3675 -0.049,0.8085 l 0,2.48675 -1.8375,0 0,-5.9535 z"
         style="font-style:normal;font-variant:normal;font-weight:800;font-stretch:normal;font-family:Avenir;-inkscape-font-specification:'Avenir Ultra-Bold'"
         id="path4551"
         inkscape:connector-curvature="0" />
      <path
         d="m 477.2905,629.47211 -0.0245,0 q -0.30625,0.47775 -0.82075,0.686 -0.50225,0.20825 -1.06575,0.20825 -0.4165,0 -0.8085,-0.1225 -0.37975,-0.11025 -0.67375,-0.343 -0.294,-0.23275 -0.4655,-0.57575 -0.1715,-0.343 -0.1715,-0.79625 0,-0.5145 0.18375,-0.86975 0.196,-0.35525 0.5145,-0.588 0.33075,-0.23275 0.74725,-0.35525 0.4165,-0.13475 0.8575,-0.196 0.45325,-0.0612 0.89425,-0.0735 0.45325,-0.0122 0.833,-0.0122 0,-0.49 -0.35525,-0.77175 -0.343,-0.294 -0.82075,-0.294 -0.45325,0 -0.833,0.196 -0.3675,0.18375 -0.6615,0.5145 l -0.98,-1.0045 q 0.5145,-0.47775 1.2005,-0.7105 0.686,-0.245 1.421,-0.245 0.8085,0 1.323,0.20825 0.52675,0.196 0.833,0.588 0.3185,0.392 0.441,0.96775 0.1225,0.5635 0.1225,1.31075 l 0,3.02575 -1.6905,0 0,-0.74725 z m -0.45325,-1.862 q -0.20825,0 -0.52675,0.0245 -0.30625,0.0122 -0.60025,0.098 -0.28175,0.0857 -0.49,0.25725 -0.196,0.1715 -0.196,0.47775 0,0.33075 0.28175,0.49 0.28175,0.15925 0.588,0.15925 0.2695,0 0.5145,-0.0735 0.25725,-0.0735 0.45325,-0.20825 0.196,-0.13475 0.30625,-0.343 0.1225,-0.20825 0.1225,-0.49 l 0,-0.392 -0.45325,0 z"
         style="font-style:normal;font-variant:normal;font-weight:800;font-stretch:normal;font-family:Avenir;-inkscape-font-specification:'Avenir Ultra-Bold'"
         id="path4553"
         inkscape:connector-curvature="0" />
      <path
         d="m 480.13384,624.26586 1.764,0 0,0.8085 0.0245,0 q 0.0857,-0.1715 0.245,-0.343 0.15925,-0.1715 0.37975,-0.30625 0.2205,-0.13475 0.50225,-0.2205 0.28175,-0.0857 0.6125,-0.0857 0.69825,0 1.127,0.2205 0.42875,0.20825 0.6615,0.588 0.245,0.37975 0.33075,0.89425 0.0858,0.5145 0.0858,1.11475 l 0,3.283 -1.8375,0 0,-2.9155 q 0,-0.25725 -0.0245,-0.52675 -0.0122,-0.28175 -0.11025,-0.5145 -0.0858,-0.23275 -0.28175,-0.37975 -0.18375,-0.147 -0.539,-0.147 -0.35525,0 -0.57575,0.13475 -0.2205,0.1225 -0.343,0.343 -0.11025,0.20825 -0.147,0.47775 -0.0367,0.2695 -0.0367,0.5635 l 0,2.9645 -1.8375,0 0,-5.9535 z"
         style="font-style:normal;font-variant:normal;font-weight:800;font-stretch:normal;font-family:Avenir;-inkscape-font-specification:'Avenir Ultra-Bold'"
         id="path4555"
         inkscape:connector-curvature="0" />
      <path
         d="m 493.41552,630.21936 -1.6905,0 0,-0.784 -0.0245,0 q -0.11025,0.15925 -0.294,0.33075 -0.1715,0.15925 -0.4165,0.294 -0.23275,0.13475 -0.52675,0.2205 -0.28175,0.0857 -0.588,0.0857 -0.6615,0 -1.2005,-0.2205 -0.539,-0.23275 -0.931,-0.637 -0.37975,-0.4165 -0.588,-0.98 -0.20825,-0.5635 -0.20825,-1.23725 0,-0.62475 0.18375,-1.18825 0.196,-0.57575 0.539,-1.01675 0.35525,-0.441 0.8575,-0.69825 0.50225,-0.2695 1.13925,-0.2695 0.57575,0 1.06575,0.18375 0.50225,0.1715 0.82075,0.60025 l 0.0245,0 0,-3.9445 1.8375,0 0,9.261 z m -1.6905,-2.97675 q 0,-0.67375 -0.392,-1.09025 -0.37975,-0.4165 -1.078,-0.4165 -0.69825,0 -1.09025,0.4165 -0.37975,0.4165 -0.37975,1.09025 0,0.67375 0.37975,1.09025 0.392,0.4165 1.09025,0.4165 0.69825,0 1.078,-0.4165 0.392,-0.4165 0.392,-1.09025 z"
         style="font-style:normal;font-variant:normal;font-weight:800;font-stretch:normal;font-family:Avenir;-inkscape-font-specification:'Avenir Ultra-Bold'"
         id="path4557"
         inkscape:connector-curvature="0" />
      <path
         d="m 497.56655,627.90411 -3.0135,0 0,-1.47 3.0135,0 0,1.47 z"
         style="font-style:normal;font-variant:normal;font-weight:800;font-stretch:normal;font-family:Avenir;-inkscape-font-specification:'Avenir Ultra-Bold'"
         id="path4559"
         inkscape:connector-curvature="0" />
      <path
         d="m 498.53276,624.26586 1.764,0 0,0.8085 0.0245,0 q 0.0858,-0.1715 0.245,-0.343 0.15925,-0.1715 0.37975,-0.30625 0.2205,-0.13475 0.50225,-0.2205 0.28175,-0.0857 0.6125,-0.0857 0.62475,0 1.1025,0.25725 0.49,0.25725 0.735,0.8085 0.3185,-0.57575 0.77175,-0.82075 0.45325,-0.245 1.11475,-0.245 0.60025,0 1.0045,0.20825 0.4165,0.196 0.64925,0.55125 0.245,0.343 0.343,0.82075 0.11025,0.4655 0.11025,1.0045 l 0,3.51575 -1.8375,0 0,-3.46675 q 0,-0.4165 -0.18375,-0.7105 -0.1715,-0.30625 -0.62475,-0.30625 -0.3185,0 -0.539,0.11025 -0.20825,0.098 -0.343,0.28175 -0.1225,0.18375 -0.18375,0.42875 -0.049,0.245 -0.049,0.5145 l 0,3.14825 -1.8375,0 0,-3.14825 q 0,-0.15925 -0.0123,-0.392 -0.0122,-0.23275 -0.0857,-0.441 -0.0735,-0.20825 -0.245,-0.35525 -0.15925,-0.147 -0.47775,-0.147 -0.35525,0 -0.57575,0.13475 -0.2205,0.1225 -0.343,0.343 -0.11025,0.20825 -0.147,0.47775 -0.0368,0.2695 -0.0368,0.5635 l 0,2.9645 -1.8375,0 0,-5.9535 z"
         style="font-style:normal;font-variant:normal;font-weight:800;font-stretch:normal;font-family:Avenir;-inkscape-font-specification:'Avenir Ultra-Bold'"
         id="path4561"
         inkscape:connector-curvature="0" />
      <path
         d="m 514.81474,629.19036 q -0.441,0.5635 -1.11475,0.86975 -0.67375,0.30625 -1.3965,0.30625 -0.686,0 -1.2985,-0.2205 -0.60025,-0.2205 -1.0535,-0.62475 -0.441,-0.4165 -0.69825,-0.99225 -0.25725,-0.57575 -0.25725,-1.28625 0,-0.7105 0.25725,-1.28625 0.25725,-0.57575 0.69825,-0.98 0.45325,-0.4165 1.0535,-0.637 0.6125,-0.2205 1.2985,-0.2205 0.637,0 1.1515,0.2205 0.52675,0.2205 0.882,0.637 0.3675,0.40425 0.5635,0.98 0.196,0.57575 0.196,1.28625 l 0,0.57575 -4.263,0 q 0.11025,0.52675 0.47775,0.84525 0.3675,0.30625 0.9065,0.30625 0.45325,0 0.7595,-0.196 0.3185,-0.20825 0.55125,-0.52675 l 1.28625,0.94325 z m -1.55575,-2.6215 q 0.0122,-0.4655 -0.30625,-0.79625 -0.3185,-0.33075 -0.82075,-0.33075 -0.30625,0 -0.539,0.098 -0.23275,0.098 -0.40425,0.25725 -0.15925,0.147 -0.25725,0.35525 -0.0858,0.196 -0.098,0.4165 l 2.4255,0 z m 0.0367,-3.2585 -1.617,0 -2.11925,-1.764 2.499,0 1.23725,1.764 z"
         style="font-style:normal;font-variant:normal;font-weight:800;font-stretch:normal;font-family:Avenir;-inkscape-font-specification:'Avenir Ultra-Bold'"
         id="path4563"
         inkscape:connector-curvature="0" />
      <path
         d="m 516.21392,624.26586 1.8375,0 0,0.9555 0.0245,0 q 0.294,-0.55125 0.69825,-0.82075 0.40425,-0.28175 1.01675,-0.28175 0.15925,0 0.3185,0.0122 0.15925,0.0122 0.294,0.049 l 0,1.67825 q -0.196,-0.0612 -0.392,-0.0857 -0.18375,-0.0367 -0.392,-0.0367 -0.52675,0 -0.833,0.147 -0.30625,0.147 -0.47775,0.4165 -0.15925,0.25725 -0.20825,0.62475 -0.049,0.3675 -0.049,0.8085 l 0,2.48675 -1.8375,0 0,-5.9535 z"
         style="font-style:normal;font-variant:normal;font-weight:800;font-stretch:normal;font-family:Avenir;-inkscape-font-specification:'Avenir Ultra-Bold'"
         id="path4565"
         inkscape:connector-curvature="0" />
      <path
         d="m 526.61015,629.19036 q -0.441,0.5635 -1.11475,0.86975 -0.67375,0.30625 -1.3965,0.30625 -0.686,0 -1.2985,-0.2205 -0.60025,-0.2205 -1.0535,-0.62475 -0.441,-0.4165 -0.69825,-0.99225 -0.25725,-0.57575 -0.25725,-1.28625 0,-0.7105 0.25725,-1.28625 0.25725,-0.57575 0.69825,-0.98 0.45325,-0.4165 1.0535,-0.637 0.6125,-0.2205 1.2985,-0.2205 0.637,0 1.1515,0.2205 0.52675,0.2205 0.882,0.637 0.3675,0.40425 0.5635,0.98 0.196,0.57575 0.196,1.28625 l 0,0.57575 -4.263,0 q 0.11025,0.52675 0.47775,0.84525 0.3675,0.30625 0.9065,0.30625 0.45325,0 0.7595,-0.196 0.3185,-0.20825 0.55125,-0.52675 l 1.28625,0.94325 z m -1.55575,-2.6215 q 0.0122,-0.4655 -0.30625,-0.79625 -0.3185,-0.33075 -0.82075,-0.33075 -0.30625,0 -0.539,0.098 -0.23275,0.098 -0.40425,0.25725 -0.15925,0.147 -0.25725,0.35525 -0.0857,0.196 -0.098,0.4165 l 2.4255,0 z"
         style="font-style:normal;font-variant:normal;font-weight:800;font-stretch:normal;font-family:Avenir;-inkscape-font-specification:'Avenir Ultra-Bold'"
         id="path4567"
         inkscape:connector-curvature="0" />
    </g>
    <g
       transform="matrix(0,-1,1,0,0,0)"
       style="font-style:normal;font-weight:normal;font-size:12.25px;line-height:125%;font-family:'Times New Roman';-inkscape-font-specification:'Times New Roman';letter-spacing:0px;word-spacing:0px;fill:#000000;fill-opacity:1;stroke:none;stroke-width:1px;stroke-linecap:butt;stroke-linejoin:miter;stroke-opacity:1"
       id="text4517">
      <path
         d="m -498.4034,116.79688 3.22175,0 q 0.67375,0 1.274,0.1225 0.60025,0.1225 1.04125,0.42875 0.45325,0.294 0.7105,0.8085 0.2695,0.50225 0.2695,1.274 0,0.7595 -0.245,1.274 -0.245,0.5145 -0.67375,0.82075 -0.42875,0.30625 -1.01675,0.441 -0.588,0.1225 -1.274,0.1225 l -1.3965,0 0,3.381 -1.911,0 0,-8.673 z m 1.911,3.675 1.274,0 q 0.25725,0 0.49,-0.049 0.245,-0.049 0.42875,-0.15925 0.196,-0.1225 0.30625,-0.3185 0.1225,-0.20825 0.1225,-0.5145 0,-0.33075 -0.15925,-0.52675 -0.147,-0.20825 -0.392,-0.3185 -0.23275,-0.11025 -0.52675,-0.13475 -0.294,-0.0367 -0.5635,-0.0367 l -0.98,0 0,2.058 z"
         style="font-style:normal;font-variant:normal;font-weight:800;font-stretch:normal;font-family:Avenir;-inkscape-font-specification:'Avenir Ultra-Bold'"
         id="path4526"
         inkscape:connector-curvature="0" />
      <path
         d="m -485.27312,124.44088 q -0.441,0.5635 -1.11475,0.86975 -0.67375,0.30625 -1.3965,0.30625 -0.686,0 -1.2985,-0.2205 -0.60025,-0.2205 -1.0535,-0.62475 -0.441,-0.4165 -0.69825,-0.99225 -0.25725,-0.57575 -0.25725,-1.28625 0,-0.7105 0.25725,-1.28625 0.25725,-0.57575 0.69825,-0.98 0.45325,-0.4165 1.0535,-0.637 0.6125,-0.2205 1.2985,-0.2205 0.637,0 1.1515,0.2205 0.52675,0.2205 0.882,0.637 0.3675,0.40425 0.5635,0.98 0.196,0.57575 0.196,1.28625 l 0,0.57575 -4.263,0 q 0.11025,0.52675 0.47775,0.84525 0.3675,0.30625 0.9065,0.30625 0.45325,0 0.7595,-0.196 0.3185,-0.20825 0.55125,-0.52675 l 1.28625,0.94325 z m -1.55575,-2.6215 q 0.0122,-0.4655 -0.30625,-0.79625 -0.3185,-0.33075 -0.82075,-0.33075 -0.30625,0 -0.539,0.098 -0.23275,0.098 -0.40425,0.25725 -0.15925,0.147 -0.25725,0.35525 -0.0858,0.196 -0.098,0.4165 l 2.4255,0 z"
         style="font-style:normal;font-variant:normal;font-weight:800;font-stretch:normal;font-family:Avenir;-inkscape-font-specification:'Avenir Ultra-Bold'"
         id="path4528"
         inkscape:connector-curvature="0" />
      <path
         d="m -483.87394,119.51638 1.8375,0 0,0.9555 0.0245,0 q 0.294,-0.55125 0.69825,-0.82075 0.40425,-0.28175 1.01675,-0.28175 0.15925,0 0.3185,0.0122 0.15925,0.0122 0.294,0.049 l 0,1.67825 q -0.196,-0.0613 -0.392,-0.0858 -0.18375,-0.0367 -0.392,-0.0367 -0.52675,0 -0.833,0.147 -0.30625,0.147 -0.47775,0.4165 -0.15925,0.25725 -0.20825,0.62475 -0.049,0.3675 -0.049,0.8085 l 0,2.48675 -1.8375,0 0,-5.9535 z"
         style="font-style:normal;font-variant:normal;font-weight:800;font-stretch:normal;font-family:Avenir;-inkscape-font-specification:'Avenir Ultra-Bold'"
         id="path4530"
         inkscape:connector-curvature="0" />
      <path
         d="m -478.26038,120.98638 -1.21275,0 0,-1.47 1.21275,0 0,-1.0535 q 0,-0.49 0.0858,-0.91875 0.0857,-0.441 0.33075,-0.77175 0.245,-0.33075 0.69825,-0.5145 0.4655,-0.196 1.21275,-0.196 0.28175,0 0.55125,0.0245 0.2695,0.0245 0.52675,0.0857 l -0.0858,1.55575 q -0.15925,-0.0613 -0.294,-0.0858 -0.13475,-0.0367 -0.30625,-0.0367 -0.441,0 -0.6615,0.196 -0.2205,0.18375 -0.2205,0.77175 l 0,0.94325 1.35975,0 0,1.47 -1.35975,0 0,4.4835 -1.8375,0 0,-4.4835 z"
         style="font-style:normal;font-variant:normal;font-weight:800;font-stretch:normal;font-family:Avenir;-inkscape-font-specification:'Avenir Ultra-Bold'"
         id="path4532"
         inkscape:connector-curvature="0" />
      <path
         d="m -474.59591,122.49313 q 0,-0.7105 0.25725,-1.28625 0.25725,-0.57575 0.69825,-0.98 0.45325,-0.4165 1.0535,-0.637 0.6125,-0.2205 1.2985,-0.2205 0.686,0 1.28625,0.2205 0.6125,0.2205 1.0535,0.637 0.45325,0.40425 0.7105,0.98 0.25725,0.57575 0.25725,1.28625 0,0.7105 -0.25725,1.28625 -0.25725,0.57575 -0.7105,0.99225 -0.441,0.40425 -1.0535,0.62475 -0.60025,0.2205 -1.28625,0.2205 -0.686,0 -1.2985,-0.2205 -0.60025,-0.2205 -1.0535,-0.62475 -0.441,-0.4165 -0.69825,-0.99225 -0.25725,-0.57575 -0.25725,-1.28625 z m 1.8375,0 q 0,0.67375 0.37975,1.09025 0.392,0.4165 1.09025,0.4165 0.69825,0 1.078,-0.4165 0.392,-0.4165 0.392,-1.09025 0,-0.67375 -0.392,-1.09025 -0.37975,-0.4165 -1.078,-0.4165 -0.69825,0 -1.09025,0.4165 -0.37975,0.4165 -0.37975,1.09025 z"
         style="font-style:normal;font-variant:normal;font-weight:800;font-stretch:normal;font-family:Avenir;-inkscape-font-specification:'Avenir Ultra-Bold'"
         id="path4534"
         inkscape:connector-curvature="0" />
      <path
         d="m -466.91056,119.51638 1.8375,0 0,0.9555 0.0245,0 q 0.294,-0.55125 0.69825,-0.82075 0.40425,-0.28175 1.01675,-0.28175 0.15925,0 0.3185,0.0122 0.15925,0.0122 0.294,0.049 l 0,1.67825 q -0.196,-0.0613 -0.392,-0.0858 -0.18375,-0.0367 -0.392,-0.0367 -0.52675,0 -0.833,0.147 -0.30625,0.147 -0.47775,0.4165 -0.15925,0.25725 -0.20825,0.62475 -0.049,0.3675 -0.049,0.8085 l 0,2.48675 -1.8375,0 0,-5.9535 z"
         style="font-style:normal;font-variant:normal;font-weight:800;font-stretch:normal;font-family:Avenir;-inkscape-font-specification:'Avenir Ultra-Bold'"
         id="path4536"
         inkscape:connector-curvature="0" />
      <path
         d="m -461.71867,119.51638 1.764,0 0,0.8085 0.0245,0 q 0.0857,-0.1715 0.245,-0.343 0.15925,-0.1715 0.37975,-0.30625 0.2205,-0.13475 0.50225,-0.2205 0.28175,-0.0857 0.6125,-0.0857 0.62475,0 1.1025,0.25725 0.49,0.25725 0.735,0.8085 0.3185,-0.57575 0.77175,-0.82075 0.45325,-0.245 1.11475,-0.245 0.60025,0 1.0045,0.20825 0.4165,0.196 0.64925,0.55125 0.245,0.343 0.343,0.82075 0.11025,0.4655 0.11025,1.0045 l 0,3.51575 -1.8375,0 0,-3.46675 q 0,-0.4165 -0.18375,-0.7105 -0.1715,-0.30625 -0.62475,-0.30625 -0.3185,0 -0.539,0.11025 -0.20825,0.098 -0.343,0.28175 -0.1225,0.18375 -0.18375,0.42875 -0.049,0.245 -0.049,0.5145 l 0,3.14825 -1.8375,0 0,-3.14825 q 0,-0.15925 -0.0122,-0.392 -0.0122,-0.23275 -0.0858,-0.441 -0.0735,-0.20825 -0.245,-0.35525 -0.15925,-0.147 -0.47775,-0.147 -0.35525,0 -0.57575,0.13475 -0.2205,0.1225 -0.343,0.343 -0.11025,0.20825 -0.147,0.47775 -0.0367,0.2695 -0.0367,0.5635 l 0,2.9645 -1.8375,0 0,-5.9535 z"
         style="font-style:normal;font-variant:normal;font-weight:800;font-stretch:normal;font-family:Avenir;-inkscape-font-specification:'Avenir Ultra-Bold'"
         id="path4538"
         inkscape:connector-curvature="0" />
      <path
         d="m -447.33545,124.72263 -0.0245,0 q -0.30625,0.47775 -0.82075,0.686 -0.50225,0.20825 -1.06575,0.20825 -0.4165,0 -0.8085,-0.1225 -0.37975,-0.11025 -0.67375,-0.343 -0.294,-0.23275 -0.4655,-0.57575 -0.1715,-0.343 -0.1715,-0.79625 0,-0.5145 0.18375,-0.86975 0.196,-0.35525 0.5145,-0.588 0.33075,-0.23275 0.74725,-0.35525 0.4165,-0.13475 0.8575,-0.196 0.45325,-0.0613 0.89425,-0.0735 0.45325,-0.0122 0.833,-0.0122 0,-0.49 -0.35525,-0.77175 -0.343,-0.294 -0.82075,-0.294 -0.45325,0 -0.833,0.196 -0.3675,0.18375 -0.6615,0.5145 l -0.98,-1.0045 q 0.5145,-0.47775 1.2005,-0.7105 0.686,-0.245 1.421,-0.245 0.8085,0 1.323,0.20825 0.52675,0.196 0.833,0.588 0.3185,0.392 0.441,0.96775 0.1225,0.5635 0.1225,1.31075 l 0,3.02575 -1.6905,0 0,-0.74725 z m -0.45325,-1.862 q -0.20825,0 -0.52675,0.0245 -0.30625,0.0122 -0.60025,0.098 -0.28175,0.0857 -0.49,0.25725 -0.196,0.1715 -0.196,0.47775 0,0.33075 0.28175,0.49 0.28175,0.15925 0.588,0.15925 0.2695,0 0.5145,-0.0735 0.25725,-0.0735 0.45325,-0.20825 0.196,-0.13475 0.30625,-0.343 0.1225,-0.20825 0.1225,-0.49 l 0,-0.392 -0.45325,0 z"
         style="font-style:normal;font-variant:normal;font-weight:800;font-stretch:normal;font-family:Avenir;-inkscape-font-specification:'Avenir Ultra-Bold'"
         id="path4540"
         inkscape:connector-curvature="0" />
      <path
         d="m -444.49211,119.51638 1.764,0 0,0.8085 0.0245,0 q 0.0858,-0.1715 0.245,-0.343 0.15925,-0.1715 0.37975,-0.30625 0.2205,-0.13475 0.50225,-0.2205 0.28175,-0.0857 0.6125,-0.0857 0.69825,0 1.127,0.2205 0.42875,0.20825 0.6615,0.588 0.245,0.37975 0.33075,0.89425 0.0857,0.5145 0.0857,1.11475 l 0,3.283 -1.8375,0 0,-2.9155 q 0,-0.25725 -0.0245,-0.52675 -0.0122,-0.28175 -0.11025,-0.5145 -0.0858,-0.23275 -0.28175,-0.37975 -0.18375,-0.147 -0.539,-0.147 -0.35525,0 -0.57575,0.13475 -0.2205,0.1225 -0.343,0.343 -0.11025,0.20825 -0.147,0.47775 -0.0367,0.2695 -0.0367,0.5635 l 0,2.9645 -1.8375,0 0,-5.9535 z"
         style="font-style:normal;font-variant:normal;font-weight:800;font-stretch:normal;font-family:Avenir;-inkscape-font-specification:'Avenir Ultra-Bold'"
         id="path4542"
         inkscape:connector-curvature="0" />
      <path
         d="m -433.42768,121.43963 q -0.13475,-0.196 -0.37975,-0.3185 -0.245,-0.13475 -0.52675,-0.13475 -0.69825,0 -1.09025,0.4165 -0.37975,0.4165 -0.37975,1.09025 0,0.67375 0.37975,1.09025 0.392,0.4165 1.09025,0.4165 0.30625,0 0.52675,-0.13475 0.2205,-0.13475 0.37975,-0.3185 l 1.21275,1.274 q -0.42875,0.441 -1.01675,0.62475 -0.57575,0.1715 -1.1025,0.1715 -0.686,0 -1.2985,-0.2205 -0.60025,-0.2205 -1.0535,-0.62475 -0.441,-0.4165 -0.69825,-0.99225 -0.25725,-0.57575 -0.25725,-1.28625 0,-0.7105 0.25725,-1.28625 0.25725,-0.57575 0.69825,-0.98 0.45325,-0.4165 1.0535,-0.637 0.6125,-0.2205 1.2985,-0.2205 0.52675,0 1.1025,0.18375 0.588,0.1715 1.01675,0.6125 l -1.21275,1.274 z"
         style="font-style:normal;font-variant:normal;font-weight:800;font-stretch:normal;font-family:Avenir;-inkscape-font-specification:'Avenir Ultra-Bold'"
         id="path4544"
         inkscape:connector-curvature="0" />
      <path
         d="m -425.91326,124.44088 q -0.441,0.5635 -1.11475,0.86975 -0.67375,0.30625 -1.3965,0.30625 -0.686,0 -1.2985,-0.2205 -0.60025,-0.2205 -1.0535,-0.62475 -0.441,-0.4165 -0.69825,-0.99225 -0.25725,-0.57575 -0.25725,-1.28625 0,-0.7105 0.25725,-1.28625 0.25725,-0.57575 0.69825,-0.98 0.45325,-0.4165 1.0535,-0.637 0.6125,-0.2205 1.2985,-0.2205 0.637,0 1.1515,0.2205 0.52675,0.2205 0.882,0.637 0.3675,0.40425 0.5635,0.98 0.196,0.57575 0.196,1.28625 l 0,0.57575 -4.263,0 q 0.11025,0.52675 0.47775,0.84525 0.3675,0.30625 0.9065,0.30625 0.45325,0 0.7595,-0.196 0.3185,-0.20825 0.55125,-0.52675 l 1.28625,0.94325 z m -1.55575,-2.6215 q 0.0123,-0.4655 -0.30625,-0.79625 -0.3185,-0.33075 -0.82075,-0.33075 -0.30625,0 -0.539,0.098 -0.23275,0.098 -0.40425,0.25725 -0.15925,0.147 -0.25725,0.35525 -0.0857,0.196 -0.098,0.4165 l 2.4255,0 z"
         style="font-style:normal;font-variant:normal;font-weight:800;font-stretch:normal;font-family:Avenir;-inkscape-font-specification:'Avenir Ultra-Bold'"
         id="path4546"
         inkscape:connector-curvature="0" />
    </g>
    <g
       style="font-style:normal;font-weight:normal;font-size:12.25px;line-height:125%;font-family:'Times New Roman';-inkscape-font-specification:'Times New Roman';letter-spacing:0px;word-spacing:0px;fill:#000000;fill-opacity:1;stroke:none;stroke-width:1px;stroke-linecap:butt;stroke-linejoin:miter;stroke-opacity:1"
       id="text4521">
      <path
         d="m 579.28919,541.52273 q -0.23275,-0.294 -0.637,-0.42875 -0.392,-0.147 -0.74725,-0.147 -0.20825,0 -0.42875,0.049 -0.2205,0.049 -0.4165,0.15925 -0.196,0.098 -0.3185,0.2695 -0.1225,0.1715 -0.1225,0.4165 0,0.392 0.294,0.60025 0.294,0.20825 0.735,0.35525 0.45325,0.147 0.96775,0.294 0.5145,0.147 0.9555,0.4165 0.45325,0.2695 0.74725,0.72275 0.294,0.45325 0.294,1.21275 0,0.72275 -0.2695,1.26175 -0.2695,0.539 -0.735,0.89425 -0.45325,0.35525 -1.06575,0.52675 -0.60025,0.1715 -1.274,0.1715 -0.84525,0 -1.568,-0.25725 -0.72275,-0.25725 -1.3475,-0.833 l 1.35975,-1.4945 q 0.294,0.392 0.735,0.6125 0.45325,0.20825 0.931,0.20825 0.23275,0 0.4655,-0.049 0.245,-0.0612 0.42875,-0.1715 0.196,-0.11025 0.30625,-0.28175 0.1225,-0.1715 0.1225,-0.40425 0,-0.392 -0.30625,-0.6125 -0.294,-0.23275 -0.74725,-0.392 -0.45325,-0.15925 -0.98,-0.3185 -0.52675,-0.15925 -0.98,-0.42875 -0.45325,-0.2695 -0.7595,-0.7105 -0.294,-0.441 -0.294,-1.16375 0,-0.69825 0.2695,-1.225 0.28175,-0.52675 0.735,-0.882 0.4655,-0.35525 1.06575,-0.52675 0.60025,-0.18375 1.23725,-0.18375 0.735,0 1.421,0.20825 0.686,0.20825 1.23725,0.69825 l -1.31075,1.43325 z"
         style="font-style:normal;font-variant:normal;font-weight:800;font-stretch:normal;font-family:Avenir;-inkscape-font-specification:'Avenir Ultra-Bold'"
         id="path4627"
         inkscape:connector-curvature="0" />
      <path
         d="m 587.43812,547.04748 q -0.441,0.5635 -1.11475,0.86975 -0.67375,0.30625 -1.3965,0.30625 -0.686,0 -1.2985,-0.2205 -0.60025,-0.2205 -1.0535,-0.62475 -0.441,-0.4165 -0.69825,-0.99225 -0.25725,-0.57575 -0.25725,-1.28625 0,-0.7105 0.25725,-1.28625 0.25725,-0.57575 0.69825,-0.98 0.45325,-0.4165 1.0535,-0.637 0.6125,-0.2205 1.2985,-0.2205 0.637,0 1.1515,0.2205 0.52675,0.2205 0.882,0.637 0.3675,0.40425 0.5635,0.98 0.196,0.57575 0.196,1.28625 l 0,0.57575 -4.263,0 q 0.11025,0.52675 0.47775,0.84525 0.3675,0.30625 0.9065,0.30625 0.45325,0 0.7595,-0.196 0.3185,-0.20825 0.55125,-0.52675 l 1.28625,0.94325 z m -1.55575,-2.6215 q 0.0122,-0.4655 -0.30625,-0.79625 -0.3185,-0.33075 -0.82075,-0.33075 -0.30625,0 -0.539,0.098 -0.23275,0.098 -0.40425,0.25725 -0.15925,0.147 -0.25725,0.35525 -0.0858,0.196 -0.098,0.4165 l 2.4255,0 z"
         style="font-style:normal;font-variant:normal;font-weight:800;font-stretch:normal;font-family:Avenir;-inkscape-font-specification:'Avenir Ultra-Bold'"
         id="path4629"
         inkscape:connector-curvature="0" />
      <path
         d="m 594.5703,548.07648 -1.764,0 0,-0.8085 -0.0245,0 q -0.098,0.1715 -0.25725,0.343 -0.147,0.1715 -0.3675,0.30625 -0.2205,0.13475 -0.50225,0.2205 -0.28175,0.0857 -0.6125,0.0857 -0.69825,0 -1.13925,-0.20825 -0.42875,-0.2205 -0.67375,-0.60025 -0.23275,-0.37975 -0.3185,-0.89425 -0.0735,-0.5145 -0.0735,-1.11475 l 0,-3.283 1.8375,0 0,2.9155 q 0,0.25725 0.0122,0.539 0.0245,0.2695 0.11025,0.50225 0.098,0.23275 0.28175,0.37975 0.196,0.147 0.55125,0.147 0.35525,0 0.57575,-0.1225 0.2205,-0.13475 0.33075,-0.343 0.1225,-0.2205 0.15925,-0.49 0.0367,-0.2695 0.0367,-0.5635 l 0,-2.9645 1.8375,0 0,5.9535 z"
         style="font-style:normal;font-variant:normal;font-weight:800;font-stretch:normal;font-family:Avenir;-inkscape-font-specification:'Avenir Ultra-Bold'"
         id="path4631"
         inkscape:connector-curvature="0" />
      <path
         d="m 595.89598,542.12298 1.8375,0 0,5.9535 -1.8375,0 0,-5.9535 z m -0.147,-1.87425 q 0,-0.441 0.30625,-0.74725 0.3185,-0.3185 0.7595,-0.3185 0.441,0 0.74725,0.3185 0.3185,0.30625 0.3185,0.74725 0,0.441 -0.3185,0.7595 -0.30625,0.30625 -0.74725,0.30625 -0.441,0 -0.7595,-0.30625 -0.30625,-0.3185 -0.30625,-0.7595 z"
         style="font-style:normal;font-variant:normal;font-weight:800;font-stretch:normal;font-family:Avenir;-inkscape-font-specification:'Avenir Ultra-Bold'"
         id="path4633"
         inkscape:connector-curvature="0" />
      <path
         d="m 599.07811,538.81548 1.8375,0 0,9.261 -1.8375,0 0,-9.261 z"
         style="font-style:normal;font-variant:normal;font-weight:800;font-stretch:normal;font-family:Avenir;-inkscape-font-specification:'Avenir Ultra-Bold'"
         id="path4635"
         inkscape:connector-curvature="0" />
      <path
         d="m 612.11996,548.07648 -1.6905,0 0,-0.784 -0.0245,0 q -0.11025,0.15925 -0.294,0.33075 -0.1715,0.15925 -0.4165,0.294 -0.23275,0.13475 -0.52675,0.2205 -0.28175,0.0857 -0.588,0.0857 -0.6615,0 -1.2005,-0.2205 -0.539,-0.23275 -0.931,-0.637 -0.37975,-0.4165 -0.588,-0.98 -0.20825,-0.5635 -0.20825,-1.23725 0,-0.62475 0.18375,-1.18825 0.196,-0.57575 0.539,-1.01675 0.35525,-0.441 0.8575,-0.69825 0.50225,-0.2695 1.13925,-0.2695 0.57575,0 1.06575,0.18375 0.50225,0.1715 0.82075,0.60025 l 0.0245,0 0,-3.9445 1.8375,0 0,9.261 z m -1.6905,-2.97675 q 0,-0.67375 -0.392,-1.09025 -0.37975,-0.4165 -1.078,-0.4165 -0.69825,0 -1.09025,0.4165 -0.37975,0.4165 -0.37975,1.09025 0,0.67375 0.37975,1.09025 0.392,0.4165 1.09025,0.4165 0.69825,0 1.078,-0.4165 0.392,-0.4165 0.392,-1.09025 z"
         style="font-style:normal;font-variant:normal;font-weight:800;font-stretch:normal;font-family:Avenir;-inkscape-font-specification:'Avenir Ultra-Bold'"
         id="path4637"
         inkscape:connector-curvature="0" />
      <path
         d="m 613.99248,539.40348 1.5435,0 0,3.4545 -1.5435,0 0,-3.4545 z"
         style="font-style:normal;font-variant:normal;font-weight:800;font-stretch:normal;font-family:Avenir;-inkscape-font-specification:'Avenir Ultra-Bold'"
         id="path4639"
         inkscape:connector-curvature="0" />
      <path
         d="m 617.2617,542.12298 1.8375,0 0,5.9535 -1.8375,0 0,-5.9535 z m -0.147,-1.87425 q 0,-0.441 0.30625,-0.74725 0.3185,-0.3185 0.7595,-0.3185 0.441,0 0.74725,0.3185 0.3185,0.30625 0.3185,0.74725 0,0.441 -0.3185,0.7595 -0.30625,0.30625 -0.74725,0.30625 -0.441,0 -0.7595,-0.30625 -0.30625,-0.3185 -0.30625,-0.7595 z"
         style="font-style:normal;font-variant:normal;font-weight:800;font-stretch:normal;font-family:Avenir;-inkscape-font-specification:'Avenir Ultra-Bold'"
         id="path4641"
         inkscape:connector-curvature="0" />
      <path
         d="m 620.41933,542.12298 1.764,0 0,0.8085 0.0245,0 q 0.0858,-0.1715 0.245,-0.343 0.15925,-0.1715 0.37975,-0.30625 0.2205,-0.13475 0.50225,-0.2205 0.28175,-0.0857 0.6125,-0.0857 0.62475,0 1.1025,0.25725 0.49,0.25725 0.735,0.8085 0.3185,-0.57575 0.77175,-0.82075 0.45325,-0.245 1.11475,-0.245 0.60025,0 1.0045,0.20825 0.4165,0.196 0.64925,0.55125 0.245,0.343 0.343,0.82075 0.11025,0.4655 0.11025,1.0045 l 0,3.51575 -1.8375,0 0,-3.46675 q 0,-0.4165 -0.18375,-0.7105 -0.1715,-0.30625 -0.62475,-0.30625 -0.3185,0 -0.539,0.11025 -0.20825,0.098 -0.343,0.28175 -0.1225,0.18375 -0.18375,0.42875 -0.049,0.245 -0.049,0.5145 l 0,3.14825 -1.8375,0 0,-3.14825 q 0,-0.15925 -0.0122,-0.392 -0.0122,-0.23275 -0.0857,-0.441 -0.0735,-0.20825 -0.245,-0.35525 -0.15925,-0.147 -0.47775,-0.147 -0.35525,0 -0.57575,0.13475 -0.2205,0.1225 -0.343,0.343 -0.11025,0.20825 -0.147,0.47775 -0.0367,0.2695 -0.0367,0.5635 l 0,2.9645 -1.8375,0 0,-5.9535 z"
         style="font-style:normal;font-variant:normal;font-weight:800;font-stretch:normal;font-family:Avenir;-inkscape-font-specification:'Avenir Ultra-Bold'"
         id="path4643"
         inkscape:connector-curvature="0" />
      <path
         d="m 631.2378,542.12298 1.6905,0 0,0.784 0.0245,0 q 0.11025,-0.15925 0.28175,-0.3185 0.18375,-0.1715 0.4165,-0.30625 0.245,-0.13475 0.52675,-0.2205 0.28175,-0.0857 0.60025,-0.0857 0.6615,0 1.2005,0.23275 0.539,0.2205 0.91875,0.637 0.392,0.40425 0.60025,0.96775 0.20825,0.5635 0.20825,1.23725 0,0.62475 -0.196,1.2005 -0.18375,0.5635 -0.539,1.0045 -0.343,0.441 -0.84525,0.7105 -0.50225,0.25725 -1.13925,0.25725 -0.57575,0 -1.078,-0.1715 -0.49,-0.18375 -0.8085,-0.6125 l -0.0245,0 0,3.43 -1.8375,0 0,-8.7465 z m 1.6905,2.97675 q 0,0.67375 0.37975,1.09025 0.392,0.4165 1.09025,0.4165 0.69825,0 1.078,-0.4165 0.392,-0.4165 0.392,-1.09025 0,-0.67375 -0.392,-1.09025 -0.37975,-0.4165 -1.078,-0.4165 -0.69825,0 -1.09025,0.4165 -0.37975,0.4165 -0.37975,1.09025 z"
         style="font-style:normal;font-variant:normal;font-weight:800;font-stretch:normal;font-family:Avenir;-inkscape-font-specification:'Avenir Ultra-Bold'"
         id="path4645"
         inkscape:connector-curvature="0" />
      <path
         d="m 638.57383,545.09973 q 0,-0.7105 0.25725,-1.28625 0.25725,-0.57575 0.69825,-0.98 0.45325,-0.4165 1.0535,-0.637 0.6125,-0.2205 1.2985,-0.2205 0.686,0 1.28625,0.2205 0.6125,0.2205 1.0535,0.637 0.45325,0.40425 0.7105,0.98 0.25725,0.57575 0.25725,1.28625 0,0.7105 -0.25725,1.28625 -0.25725,0.57575 -0.7105,0.99225 -0.441,0.40425 -1.0535,0.62475 -0.60025,0.2205 -1.28625,0.2205 -0.686,0 -1.2985,-0.2205 -0.60025,-0.2205 -1.0535,-0.62475 -0.441,-0.4165 -0.69825,-0.99225 -0.25725,-0.57575 -0.25725,-1.28625 z m 1.8375,0 q 0,0.67375 0.37975,1.09025 0.392,0.4165 1.09025,0.4165 0.69825,0 1.078,-0.4165 0.392,-0.4165 0.392,-1.09025 0,-0.67375 -0.392,-1.09025 -0.37975,-0.4165 -1.078,-0.4165 -0.69825,0 -1.09025,0.4165 -0.37975,0.4165 -0.37975,1.09025 z"
         style="font-style:normal;font-variant:normal;font-weight:800;font-stretch:normal;font-family:Avenir;-inkscape-font-specification:'Avenir Ultra-Bold'"
         id="path4647"
         inkscape:connector-curvature="0" />
      <path
         d="m 646.25917,542.12298 1.8375,0 0,0.9555 0.0245,0 q 0.294,-0.55125 0.69825,-0.82075 0.40425,-0.28175 1.01675,-0.28175 0.15925,0 0.3185,0.0122 0.15925,0.0122 0.294,0.049 l 0,1.67825 q -0.196,-0.0612 -0.392,-0.0857 -0.18375,-0.0367 -0.392,-0.0367 -0.52675,0 -0.833,0.147 -0.30625,0.147 -0.47775,0.4165 -0.15925,0.25725 -0.20825,0.62475 -0.049,0.3675 -0.049,0.8085 l 0,2.48675 -1.8375,0 0,-5.9535 z"
         style="font-style:normal;font-variant:normal;font-weight:800;font-stretch:normal;font-family:Avenir;-inkscape-font-specification:'Avenir Ultra-Bold'"
         id="path4649"
         inkscape:connector-curvature="0" />
      <path
         d="m 655.29049,543.59298 -1.617,0 0,1.9845 q 0,0.245 0.0245,0.45325 0.0245,0.196 0.11025,0.343 0.0858,0.147 0.25725,0.23275 0.18375,0.0735 0.47775,0.0735 0.147,0 0.37975,-0.0245 0.245,-0.0367 0.3675,-0.147 l 0,1.53125 q -0.30625,0.11025 -0.637,0.147 -0.33075,0.0367 -0.64925,0.0367 -0.4655,0 -0.8575,-0.098 -0.392,-0.098 -0.686,-0.30625 -0.294,-0.2205 -0.4655,-0.5635 -0.15925,-0.343 -0.15925,-0.833 l 0,-2.82975 -1.176,0 0,-1.47 1.176,0 0,-1.764 1.8375,0 0,1.764 1.617,0 0,1.47 z"
         style="font-style:normal;font-variant:normal;font-weight:800;font-stretch:normal;font-family:Avenir;-inkscape-font-specification:'Avenir Ultra-Bold'"
         id="path4651"
         inkscape:connector-curvature="0" />
      <path
         d="m 659.94855,547.32923 -0.0245,0 q -0.30625,0.47775 -0.82075,0.686 -0.50225,0.20825 -1.06575,0.20825 -0.4165,0 -0.8085,-0.1225 -0.37975,-0.11025 -0.67375,-0.343 -0.294,-0.23275 -0.4655,-0.57575 -0.1715,-0.343 -0.1715,-0.79625 0,-0.5145 0.18375,-0.86975 0.196,-0.35525 0.5145,-0.588 0.33075,-0.23275 0.74725,-0.35525 0.4165,-0.13475 0.8575,-0.196 0.45325,-0.0612 0.89425,-0.0735 0.45325,-0.0122 0.833,-0.0122 0,-0.49 -0.35525,-0.77175 -0.343,-0.294 -0.82075,-0.294 -0.45325,0 -0.833,0.196 -0.3675,0.18375 -0.6615,0.5145 l -0.98,-1.0045 q 0.5145,-0.47775 1.2005,-0.7105 0.686,-0.245 1.421,-0.245 0.8085,0 1.323,0.20825 0.52675,0.196 0.833,0.588 0.3185,0.392 0.441,0.96775 0.1225,0.5635 0.1225,1.31075 l 0,3.02575 -1.6905,0 0,-0.74725 z m -0.45325,-1.862 q -0.20825,0 -0.52675,0.0245 -0.30625,0.0122 -0.60025,0.098 -0.28175,0.0857 -0.49,0.25725 -0.196,0.1715 -0.196,0.47775 0,0.33075 0.28175,0.49 0.28175,0.15925 0.588,0.15925 0.2695,0 0.5145,-0.0735 0.25725,-0.0735 0.45325,-0.20825 0.196,-0.13475 0.30625,-0.343 0.1225,-0.20825 0.1225,-0.49 l 0,-0.392 -0.45325,0 z"
         style="font-style:normal;font-variant:normal;font-weight:800;font-stretch:normal;font-family:Avenir;-inkscape-font-specification:'Avenir Ultra-Bold'"
         id="path4653"
         inkscape:connector-curvature="0" />
      <path
         d="m 662.79189,542.12298 1.764,0 0,0.8085 0.0245,0 q 0.0858,-0.1715 0.245,-0.343 0.15925,-0.1715 0.37975,-0.30625 0.2205,-0.13475 0.50225,-0.2205 0.28175,-0.0857 0.6125,-0.0857 0.69825,0 1.127,0.2205 0.42875,0.20825 0.6615,0.588 0.245,0.37975 0.33075,0.89425 0.0858,0.5145 0.0858,1.11475 l 0,3.283 -1.8375,0 0,-2.9155 q 0,-0.25725 -0.0245,-0.52675 -0.0122,-0.28175 -0.11025,-0.5145 -0.0857,-0.23275 -0.28175,-0.37975 -0.18375,-0.147 -0.539,-0.147 -0.35525,0 -0.57575,0.13475 -0.2205,0.1225 -0.343,0.343 -0.11025,0.20825 -0.147,0.47775 -0.0368,0.2695 -0.0368,0.5635 l 0,2.9645 -1.8375,0 0,-5.9535 z"
         style="font-style:normal;font-variant:normal;font-weight:800;font-stretch:normal;font-family:Avenir;-inkscape-font-specification:'Avenir Ultra-Bold'"
         id="path4655"
         inkscape:connector-curvature="0" />
      <path
         d="m 673.85632,544.04623 q -0.13475,-0.196 -0.37975,-0.3185 -0.245,-0.13475 -0.52675,-0.13475 -0.69825,0 -1.09025,0.4165 -0.37975,0.4165 -0.37975,1.09025 0,0.67375 0.37975,1.09025 0.392,0.4165 1.09025,0.4165 0.30625,0 0.52675,-0.13475 0.2205,-0.13475 0.37975,-0.3185 l 1.21275,1.274 q -0.42875,0.441 -1.01675,0.62475 -0.57575,0.1715 -1.1025,0.1715 -0.686,0 -1.2985,-0.2205 -0.60025,-0.2205 -1.0535,-0.62475 -0.441,-0.4165 -0.69825,-0.99225 -0.25725,-0.57575 -0.25725,-1.28625 0,-0.7105 0.25725,-1.28625 0.25725,-0.57575 0.69825,-0.98 0.45325,-0.4165 1.0535,-0.637 0.6125,-0.2205 1.2985,-0.2205 0.52675,0 1.1025,0.18375 0.588,0.1715 1.01675,0.6125 l -1.21275,1.274 z"
         style="font-style:normal;font-variant:normal;font-weight:800;font-stretch:normal;font-family:Avenir;-inkscape-font-specification:'Avenir Ultra-Bold'"
         id="path4657"
         inkscape:connector-curvature="0" />
      <path
         d="m 681.37074,547.04748 q -0.441,0.5635 -1.11475,0.86975 -0.67375,0.30625 -1.3965,0.30625 -0.686,0 -1.2985,-0.2205 -0.60025,-0.2205 -1.0535,-0.62475 -0.441,-0.4165 -0.69825,-0.99225 -0.25725,-0.57575 -0.25725,-1.28625 0,-0.7105 0.25725,-1.28625 0.25725,-0.57575 0.69825,-0.98 0.45325,-0.4165 1.0535,-0.637 0.6125,-0.2205 1.2985,-0.2205 0.637,0 1.1515,0.2205 0.52675,0.2205 0.882,0.637 0.3675,0.40425 0.5635,0.98 0.196,0.57575 0.196,1.28625 l 0,0.57575 -4.263,0 q 0.11025,0.52675 0.47775,0.84525 0.3675,0.30625 0.9065,0.30625 0.45325,0 0.7595,-0.196 0.3185,-0.20825 0.55125,-0.52675 l 1.28625,0.94325 z m -1.55575,-2.6215 q 0.0122,-0.4655 -0.30625,-0.79625 -0.3185,-0.33075 -0.82075,-0.33075 -0.30625,0 -0.539,0.098 -0.23275,0.098 -0.40425,0.25725 -0.15925,0.147 -0.25725,0.35525 -0.0857,0.196 -0.098,0.4165 l 2.4255,0 z"
         style="font-style:normal;font-variant:normal;font-weight:800;font-stretch:normal;font-family:Avenir;-inkscape-font-specification:'Avenir Ultra-Bold'"
         id="path4659"
         inkscape:connector-curvature="0" />
    </g>
  </g>
</svg>
